<?xml version="1.0" encoding="utf-8"?>
<!-- Generator: Adobe Illustrator 24.0.0, SVG Export Plug-In . SVG Version: 6.00 Build 0)  -->
<svg version="1.1" id="Layer_1" xmlns="http://www.w3.org/2000/svg" xmlns:xlink="http://www.w3.org/1999/xlink" x="0px" y="0px"
	 viewBox="0 0 504 288" style="enable-background:new 0 0 504 288;" xml:space="preserve">
<style type="text/css">
	.st0{fill:#F2F2F2;}
	.st1{fill:#00507D;}
	.st2{clip-path:url(#SVGID_2_);}
	.st3{fill:#B8B8B8;}
</style>
<g>
	<rect x="0" y="0" class="st0" width="504" height="288"/>
	<path class="st1" d="M110.98,279.39c0,0.7-0.57,1.28-1.28,1.28c-0.7,0-1.28-0.57-1.28-1.28s0.57-1.28,1.28-1.28
		C110.41,278.12,110.98,278.69,110.98,279.39z"/>
	<g>
		<defs>
			<rect id="SVGID_1_" x="0" y="0" width="504" height="288"/>
		</defs>
		<clipPath id="SVGID_2_">
			<use xlink:href="#SVGID_1_"  style="overflow:visible;"/>
		</clipPath>
		<g class="st2">
			<g>
				<g>
					<path class="st3" d="M-4.74,320.17c-0.02,0-0.05-0.01-0.07-0.02c-0.05-0.03-0.07-0.1-0.04-0.15l26.26-58.46
						c0.02-0.04,0.06-0.07,0.11-0.07c0.04-0.01,0.09,0.02,0.11,0.06l0,0c0.01,0.01,0.01,0.03,0.02,0.05l4.68,27.56
						c0.01,0.04-0.01,0.08-0.03,0.11l-30.95,30.9C-4.68,320.16-4.71,320.17-4.74,320.17z M21.47,262l-25.82,57.47l30.42-30.37
						L21.47,262z"/>
				</g>
				<g>
					<path class="st3" d="M-4.74,320.17c-0.03,0-0.06-0.01-0.08-0.03l-18.38-15.99c-0.03-0.02-0.04-0.06-0.04-0.09
						c0-0.04,0.01-0.07,0.04-0.09l44.62-42.45c0.02-0.03,0.06-0.06,0.1-0.06c0.04-0.01,0.09,0.02,0.11,0.06l0,0
						c0.03,0.05,0.02,0.1-0.01,0.14l-26.25,58.43c-0.02,0.04-0.05,0.06-0.09,0.07C-4.72,320.17-4.73,320.17-4.74,320.17z
						 M-22.94,304.05l18.15,15.79l25.93-57.72L-22.94,304.05z"/>
				</g>
				<g>
					<path class="st3" d="M45.67,290.09C45.67,290.09,45.67,290.09,45.67,290.09l-19.47-0.82c-0.04,0-0.08-0.02-0.1-0.05
						c-0.02-0.03-0.03-0.07-0.01-0.11l13.66-39.33c0-0.03,0.02-0.06,0.05-0.08c0.04-0.03,0.08-0.03,0.12-0.02
						c0.05,0.02,0.08,0.07,0.08,0.12l5.8,40.15c0.01,0.04-0.01,0.07-0.03,0.1C45.74,290.07,45.71,290.09,45.67,290.09z
						 M26.38,289.03l19.15,0.81l-5.71-39.51L26.38,289.03z"/>
				</g>
				<g>
					<path class="st3" d="M45.67,290.09c-0.03,0-0.06-0.01-0.08-0.03c-0.05-0.04-0.06-0.12-0.01-0.17l40.58-49
						c0.03-0.05,0.08-0.08,0.14-0.06c0.06,0.01,0.1,0.06,0.1,0.12c0,0.03-0.01,0.06-0.02,0.08l-7.92,16.02
						c-0.01,0.01-0.01,0.02-0.02,0.03l-32.67,32.98C45.74,290.08,45.7,290.09,45.67,290.09z M85.68,241.86l-38.12,46.02l30.67-30.97
						L85.68,241.86z"/>
				</g>
				<g>
					<path class="st3" d="M45.67,290.09c-0.01,0-0.02,0-0.03,0c-0.05-0.01-0.08-0.05-0.09-0.1l-5.81-40.17
						c-0.01-0.07,0.03-0.13,0.1-0.14l46.4-8.85c0.04-0.01,0.07,0,0.1,0.03c0.03,0.02,0.05,0.06,0.05,0.1c0,0.03-0.01,0.06-0.03,0.08
						l-40.6,49.02C45.74,290.07,45.71,290.09,45.67,290.09z M40.01,249.89l5.75,39.78l40.2-48.54L40.01,249.89z"/>
				</g>
				<g>
					<path class="st3" d="M121.93,238.76c-0.04,0-0.07-0.02-0.1-0.05c-0.03-0.03-0.03-0.08-0.02-0.12l13.71-38.9
						c0.01-0.04,0.04-0.08,0.08-0.09c0.05-0.02,0.1-0.01,0.14,0.03l30.99,33.63c0.03,0.03,0.04,0.08,0.03,0.13
						c-0.02,0.04-0.06,0.08-0.1,0.08l-44.7,5.29C121.94,238.76,121.94,238.76,121.93,238.76z M135.69,199.95l-13.58,38.53
						l44.26-5.24L135.69,199.95z"/>
				</g>
				<g>
					<path class="st3" d="M166.64,233.47c-0.01,0-0.03,0-0.04-0.01c-0.06-0.02-0.09-0.07-0.08-0.13l6.98-60.31
						c0-0.05,0.02-0.09,0.06-0.12c0.06-0.03,0.13-0.02,0.17,0.04c0,0.01,0.01,0.01,0.01,0.02l12.85,27.9
						c0.02,0.04,0.01,0.08-0.01,0.12l-19.84,32.43C166.72,233.44,166.68,233.47,166.64,233.47z M173.69,173.47l-6.87,59.32
						l19.5-31.89L173.69,173.47z"/>
				</g>
				<g>
					<path class="st3" d="M166.64,233.47c-0.03,0-0.07-0.01-0.09-0.04l-30.99-33.63c-0.02-0.03-0.04-0.06-0.03-0.1
						c0-0.04,0.02-0.07,0.05-0.09l37.98-26.7c0.03-0.02,0.06-0.03,0.09-0.02c0.03,0.01,0.06,0.03,0.08,0.05
						c0.02,0.02,0.03,0.06,0.02,0.09l-6.98,60.33c-0.01,0.05-0.04,0.09-0.09,0.1C166.66,233.46,166.65,233.47,166.64,233.47z
						 M135.83,199.73l30.71,33.32l6.92-59.79L135.83,199.73z"/>
				</g>
				<g>
					<path class="st3" d="M221.19,183.38c-0.03,0-0.07-0.01-0.09-0.04c-0.03-0.03-0.04-0.07-0.03-0.11l10.98-52.64
						c0-0.02,0-0.04,0.01-0.06c0.04-0.08,0.16-0.09,0.21-0.02c0,0.01,0.01,0.01,0.01,0.02l35.48,46.28
						c0.03,0.04,0.03,0.08,0.02,0.12c-0.02,0.04-0.05,0.07-0.1,0.08l-46.47,6.37C221.2,183.38,221.2,183.38,221.19,183.38z
						 M232.24,130.88l-10.89,52.22l46.08-6.32L232.24,130.88z"/>
				</g>
				<g>
					<path class="st3" d="M267.66,177.01c0,0-0.01,0-0.01,0c-0.05,0-0.1-0.04-0.11-0.09l-13.7-49.41c-0.01-0.03,0-0.07,0.02-0.1
						c0.02-0.03,0.05-0.05,0.08-0.06l0,0c0.03-0.01,0.07,0,0.1,0.03l26.71,21.69c0.04,0.04,0.06,0.1,0.03,0.15l-13.01,27.73
						C267.75,176.98,267.71,177.01,267.66,177.01z M254.19,127.81l13.5,48.71l12.83-27.33L254.19,127.81z"/>
				</g>
				<g>
					<path class="st3" d="M267.66,177.01c-0.04,0-0.07-0.02-0.1-0.05l-35.49-46.3c-0.03-0.04-0.03-0.08-0.02-0.12
						c0.02-0.04,0.05-0.07,0.1-0.08l21.79-3.12c0.06-0.01,0.13,0.04,0.14,0.1c0,0,0,0.01,0,0.01l13.69,49.39
						c0.02,0.06-0.01,0.12-0.06,0.15C267.7,177,267.68,177.01,267.66,177.01z M232.4,130.68l34.97,45.62l-13.5-48.69L232.4,130.68z"
						/>
				</g>
				<g>
					<path class="st3" d="M280.67,149.28c-0.04,0-0.07-0.01-0.09-0.04c-0.03-0.03-0.04-0.07-0.03-0.11l11.47-47.2
						c0.02-0.07,0.08-0.11,0.15-0.09c0.04,0.01,0.08,0.04,0.09,0.08l23.19,42.33c0.02,0.04,0.02,0.08,0,0.12
						c-0.02,0.04-0.05,0.06-0.09,0.07l-34.67,4.85C280.69,149.28,280.68,149.28,280.67,149.28z M292.19,102.3l-11.35,46.71l34.3-4.8
						L292.19,102.3z"/>
				</g>
				<g>
					<path class="st3" d="M315.34,144.43c-0.03,0-0.06-0.01-0.08-0.03c-0.05-0.04-0.06-0.1-0.03-0.15l25.54-49.61
						c0.01-0.03,0.03-0.06,0.06-0.07c0.05-0.03,0.1-0.02,0.14,0.02l17.62,15.6c0.03,0.02,0.04,0.06,0.04,0.1
						c0,0.04-0.02,0.07-0.05,0.09l-43.17,34.03C315.39,144.42,315.37,144.43,315.34,144.43z M340.93,94.87l-25.21,48.98l42.6-33.58
						L340.93,94.87z"/>
				</g>
				<g>
					<path class="st3" d="M315.34,144.43c-0.05,0-0.09-0.02-0.11-0.06l-23.19-42.35c-0.02-0.04-0.02-0.08,0-0.12
						c0.02-0.04,0.05-0.06,0.09-0.07l48.74-7.29c0.03-0.01,0.07,0,0.09,0.02c0.03,0.02,0.04,0.05,0.05,0.08c0,0.03,0,0.06-0.01,0.08
						l-25.55,49.63C315.43,144.4,315.39,144.43,315.34,144.43C315.34,144.43,315.34,144.43,315.34,144.43z M292.34,102.05
						l22.99,41.98l25.33-49.21L292.34,102.05z"/>
				</g>
				<g>
					<path class="st3" d="M358.51,110.4c-0.06,0-0.12-0.05-0.12-0.11l-4.49-46.38c-0.01-0.04,0.01-0.09,0.04-0.12
						c0.05-0.04,0.12-0.04,0.17,0.01c0.01,0.01,0.01,0.01,0.02,0.02l30.52,44.36c0.03,0.04,0.03,0.08,0.01,0.12
						c-0.02,0.04-0.06,0.07-0.1,0.07L358.51,110.4C358.51,110.4,358.51,110.4,358.51,110.4z M354.19,64.36l4.43,45.78l25.7-2
						L354.19,64.36z"/>
				</g>
				<g>
					<path class="st3" d="M358.51,110.4c-0.03,0-0.06-0.01-0.08-0.03l-17.62-15.6c-0.04-0.04-0.05-0.09-0.03-0.14l13.13-30.78
						c0.02-0.04,0.05-0.07,0.09-0.07c0.04-0.01,0.08,0.01,0.11,0.03c0.02,0.02,0.03,0.05,0.04,0.08l4.49,46.39
						c0,0.05-0.02,0.1-0.07,0.12C358.55,110.4,358.53,110.4,358.51,110.4z M341.04,94.64l17.31,15.33l-4.41-45.58L341.04,94.64z"/>
				</g>
				<g>
					<path class="st3" d="M384.54,108.37c-0.01,0-0.02,0-0.04-0.01c-0.05-0.02-0.09-0.06-0.09-0.12l0.35-61.64
						c0-0.04,0.02-0.07,0.04-0.09c0.03-0.02,0.06-0.04,0.1-0.03l0,0c0.04,0,0.07,0.02,0.09,0.06l20.53,31.07
						c0.03,0.04,0.03,0.1,0,0.14l-20.89,30.57C384.62,108.35,384.58,108.37,384.54,108.37z M385.02,47.01l-0.35,60.83l20.61-30.16
						L385.02,47.01z"/>
				</g>
				<g>
					<path class="st3" d="M384.54,108.37c-0.04,0-0.08-0.02-0.1-0.05l-30.53-44.36c-0.02-0.03-0.03-0.06-0.02-0.1
						c0.01-0.03,0.03-0.06,0.06-0.08l30.86-17.27c0.03-0.02,0.06-0.04,0.09-0.03l0,0c0.05,0.01,0.1,0.05,0.11,0.1
						c0,0.02,0,0.04,0,0.06l-0.35,61.6c0,0.05-0.04,0.1-0.09,0.12C384.57,108.37,384.55,108.37,384.54,108.37z M354.2,63.93
						l30.22,43.92l0.35-61.02L354.2,63.93z"/>
				</g>
				<g>
					<path class="st3" d="M430.3,62.19c-0.04,0-0.07-0.02-0.09-0.04c-0.04-0.04-0.04-0.1-0.01-0.15l37.09-57.55
						c0.04-0.06,0.11-0.07,0.17-0.04c0.04,0.03,0.07,0.07,0.06,0.12l4,39.02c0.01,0.05-0.02,0.1-0.07,0.13l-41.09,18.51
						C430.34,62.18,430.32,62.19,430.3,62.19z M467.3,4.88l-36.67,56.89l40.63-18.3L467.3,4.88z"/>
				</g>
				<g>
					<path class="st3" d="M471.39,43.68c-0.02,0-0.05-0.01-0.07-0.02c-0.04-0.02-0.06-0.07-0.06-0.12l4.41-51.57
						c0-0.06,0.05-0.11,0.11-0.11c0.07-0.01,0.12,0.03,0.13,0.09l0,0l15.78,40.14c0.02,0.06,0,0.12-0.05,0.15l-20.19,11.41
						C471.44,43.67,471.42,43.68,471.39,43.68z M475.89-7.47l-4.35,50.8l19.89-11.24L475.89-7.47z"/>
				</g>
				<g>
					<path class="st3" d="M471.39,43.68c-0.06,0-0.12-0.05-0.12-0.11l-4-39.04c0-0.03,0-0.06,0.02-0.08l8.4-12.5
						c0.02-0.04,0.06-0.07,0.1-0.08c0.07-0.01,0.12,0.03,0.13,0.09l0,0c0.01,0.02,0.01,0.04,0,0.06l-4.41,51.55
						C471.51,43.63,471.46,43.68,471.39,43.68C471.4,43.68,471.4,43.68,471.39,43.68z M467.52,4.54l3.86,37.67l4.26-49.76
						L467.52,4.54z"/>
				</g>
				<g>
					<path class="st3" d="M491.59,32.27c-0.03,0-0.05-0.01-0.08-0.03c-0.04-0.03-0.06-0.08-0.05-0.12l10.26-51.72
						c0.01-0.04,0.04-0.08,0.09-0.1c0.04-0.01,0.09,0,0.12,0.03l0,0l24.42,34.24c0.02,0.03,0.03,0.07,0.02,0.1
						c-0.01,0.04-0.03,0.07-0.07,0.08l-34.67,17.49C491.63,32.26,491.61,32.27,491.59,32.27z M501.91-19.27l-10.15,51.18
						l34.31-17.31L501.91-19.27z"/>
				</g>
				<g>
					<path class="st3" d="M491.59,32.27c-0.05,0-0.1-0.03-0.12-0.08L475.69-7.97c-0.02-0.06,0-0.13,0.07-0.16l26.01-11.55
						c0.01-0.01,0.03-0.02,0.04-0.02c0.04-0.01,0.09,0,0.12,0.03l0,0c0.03,0.03,0.04,0.07,0.03,0.11c0,0.01-0.01,0.02-0.01,0.03
						l-10.25,51.69c-0.01,0.05-0.06,0.1-0.11,0.1C491.6,32.27,491.59,32.27,491.59,32.27z M475.97-7.95l15.58,39.64l10.13-51.06
						L475.97-7.95z"/>
				</g>
				<g>
					<path class="st3" d="M526.25,14.78c-0.03,0-0.06-0.01-0.08-0.03c-0.04-0.04-0.05-0.11-0.02-0.16l28.21-42.46
						c0.02-0.03,0.05-0.05,0.1-0.06c0.01,0,0.02,0,0.03,0l23.3,2.54c0.05,0.01,0.09,0.04,0.11,0.09c0.01,0.05,0,0.1-0.04,0.13
						l-51.54,39.91C526.31,14.77,526.28,14.78,526.25,14.78z M554.53-27.67l-27.75,41.76l50.69-39.25L554.53-27.67z"/>
				</g>
				<g>
					<path class="st3" d="M526.25,14.78c-0.04,0-0.08-0.02-0.1-0.05l-24.4-34.23c-0.03-0.04-0.03-0.08-0.01-0.12
						c0.02-0.04,0.05-0.07,0.1-0.08l52.6-8.23c0.01,0,0.03-0.01,0.04-0.01c0.04,0,0.08,0.02,0.1,0.05l0,0
						c0.03,0.04,0.03,0.08,0.02,0.12c-0.01,0.02-0.02,0.03-0.03,0.04l-28.2,42.44C526.34,14.76,526.3,14.78,526.25,14.78
						C526.26,14.78,526.25,14.78,526.25,14.78z M502.07-19.48l24.18,33.91l27.95-42.07L502.07-19.48z"/>
				</g>
				<g>
					<path class="st3" d="M35.59,330.32c-0.03,0-0.06-0.01-0.08-0.03c-0.03-0.03-0.05-0.08-0.04-0.12l10.08-40.23
						c0-0.02,0.01-0.03,0.02-0.04l0,0c0.04-0.05,0.1-0.06,0.16-0.04l44.26,22.23c0.04,0.02,0.07,0.07,0.07,0.12
						c0,0.05-0.04,0.09-0.08,0.11l-54.34,18.01C35.62,330.32,35.61,330.32,35.59,330.32z M45.75,290.15l-9.98,39.86l53.84-17.84
						L45.75,290.15z"/>
				</g>
				<g>
					<path class="st3" d="M35.59,330.32C35.59,330.32,35.59,330.32,35.59,330.32c-0.06,0-0.11-0.04-0.12-0.1l-9.39-41.05
						c-0.01-0.04,0-0.08,0.03-0.11c0.02-0.03,0.06-0.05,0.1-0.04l19.47,0.82c0.05,0,0.09,0.03,0.11,0.07c0.02,0.03,0.02,0.07,0,0.1
						l-10.07,40.22C35.7,330.29,35.65,330.32,35.59,330.32z M26.36,289.28l9.24,40.39l9.91-39.58L26.36,289.28z"/>
				</g>
				<g>
					<path class="st3" d="M89.93,312.32c-0.01,0-0.03,0-0.04-0.01c-0.04-0.01-0.08-0.05-0.08-0.09l-11.6-55.21
						c-0.01-0.06,0.02-0.12,0.07-0.14c0.04-0.02,0.1-0.01,0.13,0.02l40.38,28.81c0.03,0.02,0.05,0.06,0.05,0.09
						c0,0.04-0.01,0.07-0.04,0.1l-28.79,26.39C89.99,312.31,89.96,312.32,89.93,312.32z M78.52,257.27l11.49,54.68l28.52-26.14
						L78.52,257.27z"/>
				</g>
				<g>
					<path class="st3" d="M89.93,312.32c-0.02,0-0.04,0-0.06-0.01l-44.26-22.23c-0.04-0.02-0.06-0.05-0.07-0.09
						c-0.01-0.04,0.01-0.08,0.03-0.11l32.65-32.97c0.01-0.02,0.03-0.03,0.05-0.04c0.06-0.02,0.12,0,0.15,0.05l0,0
						c0.01,0.02,0.02,0.04,0.02,0.06l11.59,55.2c0.01,0.05-0.01,0.1-0.05,0.13C89.99,312.31,89.96,312.32,89.93,312.32z
						 M45.88,289.93l43.88,22.03l-11.5-54.73L45.88,289.93z"/>
				</g>
				<g>
					<path class="st3" d="M118.73,285.93c-0.03,0-0.05-0.01-0.07-0.02c-0.03-0.03-0.05-0.07-0.05-0.11l3.2-47.17
						c0-0.05,0.03-0.09,0.08-0.11c0.05-0.02,0.1-0.01,0.13,0.03l0,0l30.42,34.73c0.03,0.03,0.04,0.07,0.03,0.11
						c-0.01,0.04-0.04,0.07-0.08,0.09l-33.62,12.45C118.76,285.92,118.74,285.93,118.73,285.93z M122.04,238.94l-3.17,46.68
						l33.26-12.32L122.04,238.94z"/>
				</g>
				<g>
					<path class="st3" d="M118.73,285.93c-0.03,0-0.05-0.01-0.07-0.02l-40.39-28.82c-0.04-0.03-0.06-0.07-0.05-0.12
						c0-0.04,0.03-0.08,0.08-0.1l43.58-18.34c0.01,0,0.01,0,0.02-0.01c0.05-0.02,0.1-0.01,0.13,0.03l0,0
						c0.03,0.03,0.04,0.07,0.04,0.11l-3.2,47.16c0,0.05-0.03,0.09-0.07,0.1C118.76,285.92,118.74,285.93,118.73,285.93z
						 M78.59,257.01l40.02,28.56l3.18-46.74L78.59,257.01z"/>
				</g>
				<g>
					<path class="st3" d="M152.34,273.48c-0.04,0-0.07-0.02-0.09-0.04c-0.03-0.03-0.04-0.08-0.02-0.12l14.29-40.01
						c0.02-0.05,0.06-0.08,0.11-0.08l0,0c0.07,0,0.13,0.04,0.14,0.11l5.24,36.06c0.01,0.07-0.03,0.13-0.1,0.14l-19.53,3.95
						C152.36,273.48,152.35,273.48,152.34,273.48z M166.58,233.85l-14.05,39.34l19.2-3.89L166.58,233.85z"/>
				</g>
				<g>
					<path class="st3" d="M152.34,273.48c-0.04,0-0.07-0.02-0.09-0.04l-30.41-34.72c-0.03-0.04-0.04-0.08-0.02-0.13
						c0.02-0.04,0.06-0.07,0.1-0.08l44.69-5.29c0,0,0,0,0.01,0l0,0c0.06-0.01,0.13,0.04,0.14,0.11c0,0.03,0,0.06-0.02,0.09
						l-14.28,39.98c-0.01,0.04-0.05,0.07-0.09,0.08C152.36,273.48,152.35,273.48,152.34,273.48z M122.18,238.73l30.11,34.38
						l14.15-39.62L122.18,238.73z"/>
				</g>
				<g>
					<path class="st3" d="M171.87,269.53c-0.02,0-0.05-0.01-0.07-0.02c-0.04-0.03-0.06-0.08-0.05-0.13l14.6-68.47
						c0-0.01,0.01-0.03,0.01-0.04c0.03-0.06,0.09-0.08,0.15-0.06c0.05,0.02,0.08,0.06,0.08,0.11l12.45,50.98
						c0.01,0.05-0.01,0.11-0.05,0.13l-27.05,17.49C171.92,269.52,171.89,269.53,171.87,269.53z M186.48,201.48l-14.42,67.66
						l26.72-17.28L186.48,201.48z"/>
				</g>
				<g>
					<path class="st3" d="M171.87,269.53C171.87,269.53,171.87,269.53,171.87,269.53c-0.06,0-0.12-0.05-0.12-0.11l-5.24-36.06
						c0-0.03,0-0.06,0.02-0.08l19.84-32.43c0.03-0.05,0.09-0.08,0.15-0.05c0.06,0.02,0.09,0.08,0.08,0.14l-14.6,68.49
						C171.98,269.48,171.93,269.53,171.87,269.53z M166.77,233.37l5.13,35.32l14.3-67.09L166.77,233.37z"/>
				</g>
				<g>
					<path class="st3" d="M198.92,252.03c-0.03,0-0.05-0.01-0.08-0.02c-0.04-0.03-0.06-0.09-0.04-0.14l22.27-68.66
						c0.02-0.05,0.08-0.09,0.12-0.09c0.06,0,0.1,0.04,0.12,0.09l0,0l16.09,42.5c0.02,0.05,0,0.12-0.05,0.15l-38.37,26.15
						C198.97,252.03,198.95,252.03,198.92,252.03z M221.2,183.63l-22.05,67.97l37.98-25.89L221.2,183.63z"/>
				</g>
				<g>
					<path class="st3" d="M198.92,252.03C198.92,252.03,198.92,252.03,198.92,252.03c-0.06,0-0.11-0.04-0.12-0.1l-12.45-51
						c-0.01-0.06,0.01-0.11,0.06-0.14l34.7-17.65c0.02-0.02,0.05-0.02,0.08-0.03c0.06,0,0.1,0.04,0.12,0.09l0,0
						c0.01,0.03,0,0.06-0.01,0.08l-22.26,68.64C199.02,252,198.98,252.03,198.92,252.03z M186.62,200.98l12.32,50.47l22.04-67.95
						L186.62,200.98z"/>
				</g>
				<g>
					<path class="st3" d="M237.29,225.89c-0.03,0-0.05-0.01-0.07-0.02c-0.05-0.04-0.07-0.11-0.03-0.17l30.37-48.88
						c0.03-0.06,0.11-0.08,0.16-0.05l0,0c0.05,0.03,0.08,0.08,0.07,0.14l-3.46,17.16c0,0.02-0.01,0.04-0.03,0.06l-26.91,31.72
						C237.36,225.87,237.32,225.89,237.29,225.89z M267.4,177.52l-29.12,46.87l25.8-30.41L267.4,177.52z"/>
				</g>
				<g>
					<path class="st3" d="M237.29,225.89c0,0-0.01,0-0.01,0c-0.05,0-0.09-0.04-0.1-0.08l-16.1-42.51c-0.01-0.04-0.01-0.08,0.01-0.11
						c0.02-0.03,0.05-0.05,0.09-0.06l46.44-6.37c0.03-0.01,0.07-0.01,0.1,0.01l0,0c0.05,0.02,0.08,0.08,0.07,0.13
						c0,0.03-0.02,0.05-0.04,0.07l-30.35,48.86C237.37,225.87,237.33,225.89,237.29,225.89z M221.36,183.35l15.95,42.13l30.1-48.44
						L221.36,183.35z"/>
				</g>
				<g>
					<path class="st3" d="M264.2,194.17c-0.03,0-0.06-0.01-0.08-0.03c-0.04-0.03-0.05-0.09-0.04-0.14l16.47-44.87
						c0.01-0.04,0.03-0.07,0.07-0.08c0.05-0.02,0.1-0.02,0.14,0.02c0.03,0.03,0.05,0.07,0.04,0.11l0.62,35.6
						c0,0.05-0.02,0.09-0.07,0.11l-17.09,9.27C264.24,194.16,264.22,194.17,264.2,194.17z M280.56,149.83l-16.13,43.94l16.74-9.08
						L280.56,149.83z"/>
				</g>
				<g>
					<path class="st3" d="M264.2,194.17c-0.01,0-0.02,0-0.03,0c-0.06-0.02-0.1-0.08-0.09-0.15l3.46-17.16l13.02-27.76
						c0.01-0.03,0.03-0.05,0.06-0.06c0.05-0.02,0.1-0.02,0.14,0.02c0.04,0.03,0.05,0.09,0.03,0.14l-16.47,44.89
						C264.3,194.13,264.25,194.17,264.2,194.17z M279.57,151.8l-11.79,25.14l-3.13,15.53L279.57,151.8z"/>
				</g>
				<g>
					<path class="st3" d="M281.3,184.89c-0.04,0-0.08-0.02-0.1-0.05c-0.03-0.05-0.03-0.11,0-0.16l34.03-40.44
						c0.01-0.02,0.02-0.03,0.03-0.04c0.04-0.03,0.1-0.03,0.14-0.01l23.87,15.57c0.04,0.02,0.06,0.07,0.06,0.12s-0.03,0.09-0.08,0.1
						l-57.92,24.89C281.33,184.89,281.31,184.89,281.3,184.89z M315.37,144.47l-33.64,39.97l57.22-24.59L315.37,144.47z"/>
				</g>
				<g>
					<path class="st3" d="M281.3,184.89c-0.01,0-0.03,0-0.04-0.01c-0.05-0.02-0.08-0.06-0.08-0.12l-0.62-35.61
						c0-0.06,0.05-0.12,0.11-0.13l34.67-4.85c0.05,0,0.12,0.03,0.14,0.08c0.01,0.04,0.01,0.09-0.02,0.12l-34.04,40.46
						C281.37,184.88,281.33,184.89,281.3,184.89z M280.8,149.26l0.61,35.17l33.62-39.96L280.8,149.26z"/>
				</g>
				<g>
					<path class="st3" d="M339.21,160c-0.03,0-0.06-0.01-0.08-0.03c-0.04-0.03-0.06-0.09-0.04-0.14l19.29-49.6
						c0.01-0.02,0.02-0.03,0.03-0.04l0,0c0.03-0.03,0.08-0.04,0.12-0.03c0.04,0.01,0.08,0.04,0.09,0.09l9.52,31.88
						c0.02,0.05-0.01,0.11-0.05,0.14l-28.81,17.72C339.26,160,339.24,160,339.21,160z M358.49,110.66l-19.03,48.92l28.41-17.47
						L358.49,110.66z"/>
				</g>
				<g>
					<path class="st3" d="M339.21,160c-0.02,0-0.05-0.01-0.07-0.02l-23.87-15.57c-0.03-0.02-0.05-0.06-0.06-0.1
						c0-0.04,0.02-0.08,0.05-0.1l43.17-34.03c0.05-0.04,0.13-0.03,0.17,0.02c0.03,0.04,0.04,0.09,0.02,0.14l-19.29,49.59
						c-0.01,0.04-0.04,0.06-0.08,0.07C339.24,160,339.23,160,339.21,160z M315.55,144.29l23.6,15.39l19.07-49.03L315.55,144.29z"/>
				</g>
				<g>
					<path class="st3" d="M368.02,142.28c-0.03,0-0.06-0.01-0.08-0.03c-0.04-0.04-0.06-0.1-0.03-0.15l16.52-33.92
						c0.03-0.06,0.1-0.09,0.16-0.06c0.04,0.01,0.06,0.04,0.07,0.08l9.11,15.85c0.03,0.06,0.02,0.13-0.04,0.16l-25.64,18.04
						C368.07,142.28,368.05,142.28,368.02,142.28z M384.55,108.51l-16.2,33.26l25.15-17.69L384.55,108.51z"/>
				</g>
				<g>
					<path class="st3" d="M368.02,142.28c0,0-0.01,0-0.01,0c-0.05,0-0.09-0.04-0.11-0.09l-9.52-31.88c-0.01-0.04,0-0.08,0.02-0.11
						c0.02-0.03,0.06-0.05,0.09-0.05l26.01-2.03c0.03-0.01,0.06-0.01,0.08,0c0.06,0.02,0.09,0.09,0.08,0.15l0,0
						c0,0.01-0.01,0.02-0.01,0.03l-16.51,33.9C368.11,142.26,368.07,142.28,368.02,142.28z M358.67,110.39l9.38,31.43l16.28-33.43
						L358.67,110.39z"/>
				</g>
				<g>
					<path class="st3" d="M393.67,124.25c-0.03,0-0.06-0.01-0.08-0.03c-0.04-0.03-0.05-0.08-0.04-0.13l11.76-46.44
						c0.02-0.06,0.07-0.1,0.13-0.09l0.01,0c0.06,0.01,0.11,0.05,0.11,0.11l4.31,39.31c0.01,0.05-0.02,0.11-0.07,0.13l-16.08,7.13
						C393.7,124.24,393.69,124.25,393.67,124.25z M405.38,78.36l-11.53,45.54l15.76-6.99L405.38,78.36z"/>
				</g>
				<g>
					<path class="st3" d="M393.67,124.25c-0.04,0-0.09-0.02-0.11-0.06l-9.13-15.87c-0.02-0.04-0.02-0.09,0.01-0.13l20.87-30.54
						c0.02-0.05,0.07-0.1,0.13-0.08l0.01,0c0.04,0,0.08,0.03,0.1,0.07c0.02,0.04,0.02,0.08-0.01,0.12l-11.75,46.41
						c-0.01,0.05-0.05,0.09-0.1,0.09C393.68,124.24,393.67,124.25,393.67,124.25z M384.69,108.25l8.93,15.54l11.51-45.45
						L384.69,108.25z"/>
				</g>
				<g>
					<path class="st3" d="M409.75,117.11c-0.03,0-0.06-0.01-0.08-0.03c-0.04-0.03-0.06-0.09-0.04-0.14l20.55-54.93
						c0.01-0.04,0.04-0.06,0.08-0.07l0,0c0.06-0.02,0.12,0.01,0.15,0.06l17.27,31.29c0.03,0.06,0.01,0.13-0.04,0.17l-37.83,23.64
						C409.79,117.11,409.77,117.11,409.75,117.11z M430.32,62.36l-20.33,54.33l37.41-23.38L430.32,62.36z"/>
				</g>
				<g>
					<path class="st3" d="M409.75,117.11c0,0-0.01,0-0.02,0c-0.06-0.01-0.1-0.05-0.11-0.11l-4.31-39.31
						c-0.01-0.05,0.02-0.09,0.06-0.12l24.85-15.6c0.01-0.01,0.03-0.02,0.04-0.02l0,0c0.06-0.02,0.13,0.01,0.15,0.07
						c0.02,0.04,0.01,0.09-0.01,0.12l-20.54,54.9C409.84,117.08,409.8,117.11,409.75,117.11z M405.56,77.74l4.25,38.71l20.24-54.09
						L405.56,77.74z"/>
				</g>
				<g>
					<path class="st3" d="M447.57,93.47c-0.04,0-0.07-0.02-0.1-0.04c-0.03-0.04-0.04-0.09-0.02-0.13l23.82-49.79
						c0.01-0.04,0.04-0.07,0.08-0.08c0.04-0.02,0.09,0,0.13,0.03l34.31,33.11c0.03,0.03,0.05,0.08,0.03,0.12
						c-0.01,0.04-0.04,0.08-0.09,0.09l-58.13,16.68C447.6,93.47,447.58,93.47,447.57,93.47z M471.43,43.76l-23.63,49.39l57.65-16.55
						L471.43,43.76z"/>
				</g>
				<g>
					<path class="st3" d="M447.57,93.47c-0.05,0-0.09-0.02-0.11-0.06l-17.27-31.29c-0.02-0.03-0.02-0.07-0.01-0.1
						c0.01-0.03,0.04-0.06,0.07-0.07l41.09-18.51c0.04-0.02,0.09-0.01,0.13,0.01c0.04,0.03,0.05,0.07,0.05,0.12
						c0,0.01-0.01,0.03-0.01,0.04l-23.82,49.8C447.67,93.45,447.62,93.47,447.57,93.47C447.58,93.47,447.57,93.47,447.57,93.47z
						 M430.48,62.12l17.09,30.96l23.57-49.27L430.48,62.12z"/>
				</g>
				<g>
					<path class="st3" d="M505.7,76.79c-0.01,0-0.02,0-0.03,0c-0.04-0.01-0.08-0.04-0.09-0.08l-14.12-44.53
						c-0.01-0.04,0-0.09,0.03-0.12c0.03-0.03,0.07-0.05,0.12-0.04l0,0l40.9,15.94c0.04,0.02,0.07,0.05,0.08,0.09
						c0.01,0.04,0,0.08-0.03,0.11l-26.77,28.59C505.77,76.78,505.74,76.79,505.7,76.79z M491.78,32.35l13.98,44.07l26.5-28.3
						L491.78,32.35z"/>
				</g>
				<g>
					<path class="st3" d="M505.7,76.79c-0.03,0-0.06-0.01-0.09-0.04l-34.31-33.11c-0.03-0.03-0.04-0.07-0.04-0.11
						c0-0.04,0.03-0.07,0.06-0.09l20.17-11.4c0.03-0.03,0.07-0.04,0.11-0.03l0,0c0.05,0.01,0.09,0.05,0.1,0.1c0,0,0,0.01,0,0.01
						l14.11,44.49c0.02,0.05,0,0.11-0.05,0.14C505.75,76.78,505.73,76.79,505.7,76.79z M471.6,43.58l33.83,32.66l-13.92-43.91
						L471.6,43.58z"/>
				</g>
				<g>
					<path class="st3" d="M532.47,48.2c-0.02,0-0.04,0-0.06-0.01c-0.03-0.02-0.06-0.05-0.06-0.09l-6.21-33.4
						c-0.01-0.03-0.01-0.07,0.01-0.1c0.03-0.06,0.1-0.08,0.16-0.06l42.11,17.93c0.05,0.02,0.08,0.06,0.08,0.11
						c0,0.05-0.03,0.1-0.08,0.12l-35.89,15.49C532.5,48.19,532.49,48.2,532.47,48.2z M526.42,14.86l6.14,33.04l35.48-15.31
						L526.42,14.86z"/>
				</g>
				<g>
					<path class="st3" d="M532.47,48.2c-0.02,0-0.03,0-0.05-0.01l-40.88-15.93c-0.05-0.02-0.08-0.06-0.08-0.11
						c0-0.05,0.02-0.1,0.07-0.12l34.67-17.49c0.04-0.02,0.09-0.02,0.13,0.01c0.03,0.02,0.05,0.05,0.06,0.08l6.21,33.42
						c0.01,0.04-0.01,0.09-0.04,0.12C532.53,48.19,532.5,48.2,532.47,48.2z M491.9,32.13l40.41,15.75l-6.14-33.04L491.9,32.13z"/>
				</g>
				<g>
					<path class="st3" d="M568.36,32.71c-0.01,0-0.02,0-0.03,0c-0.06-0.02-0.1-0.08-0.09-0.14l9.43-57.84
						c0.01-0.07,0.07-0.11,0.14-0.1c0.07,0.01,0.11,0.07,0.11,0.13l-3.59,43.69c0,0.01,0,0.03-0.01,0.04l-5.84,14.15
						C568.46,32.68,568.41,32.71,568.36,32.71z M577.41-22.14l-8.75,53.68l5.42-13.13L577.41-22.14z"/>
				</g>
				<g>
					<path class="st3" d="M568.36,32.71c-0.02,0-0.03,0-0.05-0.01L526.2,14.77c-0.04-0.02-0.07-0.06-0.08-0.1
						c-0.01-0.04,0.01-0.09,0.05-0.11l51.54-39.91c0.04-0.03,0.1-0.04,0.14-0.01c0.04,0.03,0.07,0.08,0.06,0.13l-9.43,57.84
						c-0.01,0.04-0.03,0.07-0.06,0.09C568.4,32.7,568.38,32.71,568.36,32.71z M526.5,14.62l41.77,17.79l9.35-57.37L526.5,14.62z"/>
				</g>
				<g>
					<path class="st3" d="M66.26,371.83c-0.03,0-0.05-0.01-0.07-0.02c-0.05-0.03-0.07-0.09-0.04-0.15l23.67-59.49
						c0-0.03,0.02-0.05,0.04-0.07c0.04-0.04,0.09-0.04,0.14-0.02c0.03,0.02,0.06,0.05,0.07,0.08l11.88,28.34
						c0.02,0.05,0.01,0.11-0.03,0.14L66.34,371.8C66.32,371.82,66.29,371.83,66.26,371.83z M89.94,312.53l-23.37,58.75l35.11-30.76
						L89.94,312.53z"/>
				</g>
				<g>
					<path class="st3" d="M66.26,371.83c-0.04,0-0.08-0.02-0.1-0.05l-30.67-41.51c-0.02-0.03-0.03-0.07-0.02-0.11
						c0.01-0.04,0.04-0.07,0.08-0.08l54.34-18.01c0.03-0.01,0.07-0.01,0.1,0.01c0.06,0.03,0.09,0.1,0.06,0.16l-23.68,59.51
						c-0.02,0.04-0.06,0.07-0.1,0.08C66.27,371.83,66.27,371.83,66.26,371.83z M35.8,330.26l30.43,41.19l23.5-59.06L35.8,330.26z"/>
				</g>
				<g>
					<path class="st3" d="M101.83,340.67c-0.03,0-0.06-0.01-0.08-0.03c-0.04-0.03-0.06-0.09-0.04-0.13l16.9-54.75
						c0.02-0.07,0.09-0.1,0.16-0.08c0.04,0.01,0.08,0.05,0.09,0.09l19.12,34.8c0.03,0.06,0.01,0.14-0.05,0.17l-36.03,19.92
						C101.87,340.67,101.85,340.67,101.83,340.67z M118.76,286.12l-16.72,54.17l35.65-19.71L118.76,286.12z"/>
				</g>
				<g>
					<path class="st3" d="M101.83,340.67c-0.05,0-0.1-0.03-0.12-0.08l-11.89-28.36c-0.02-0.05-0.01-0.11,0.03-0.14l28.77-26.37
						c0.03-0.04,0.09-0.07,0.14-0.05c0.07,0.02,0.1,0.09,0.08,0.16l0,0.01c0,0,0,0,0,0l-16.9,54.75
						C101.93,340.64,101.88,340.67,101.83,340.67C101.83,340.67,101.83,340.67,101.83,340.67z M90.08,312.22l11.72,27.96
						l16.66-53.98L90.08,312.22z"/>
				</g>
				<g>
					<path class="st3" d="M137.86,320.75c-0.02,0-0.04,0-0.06-0.01c-0.05-0.03-0.08-0.09-0.06-0.15l14.48-47.27
						c0.02-0.06,0.07-0.09,0.13-0.09c0.06,0,0.11,0.05,0.11,0.11l3.16,25.13c0,0.03-0.01,0.07-0.03,0.09l-17.64,22.15
						C137.93,320.74,137.9,320.75,137.86,320.75z M152.29,273.95l-14.12,46.09l17.2-21.59L152.29,273.95z"/>
				</g>
				<g>
					<path class="st3" d="M137.86,320.75c-0.05,0-0.09-0.02-0.11-0.06l-19.13-34.83c-0.02-0.03-0.02-0.07-0.01-0.1
						c0.01-0.03,0.04-0.06,0.07-0.07l33.62-12.45c0.04-0.02,0.09-0.01,0.13,0.03c0.03,0.03,0.05,0.08,0.03,0.13l-14.48,47.27
						c-0.01,0.05-0.06,0.08-0.11,0.09C137.87,320.75,137.86,320.75,137.86,320.75z M118.9,285.87l18.92,34.44l14.32-46.75
						L118.9,285.87z"/>
				</g>
				<g>
					<path class="st3" d="M155.5,298.61c-0.03,0-0.06-0.01-0.08-0.03c-0.04-0.04-0.06-0.1-0.03-0.16l16.37-29.08
						c0.02-0.04,0.06-0.06,0.1-0.06c0.01,0,0.03,0,0.04,0l20.94,1.41c0.05,0,0.1,0.04,0.11,0.09c0.01,0.05,0,0.1-0.05,0.14
						l-37.33,27.66C155.55,298.6,155.53,298.61,155.5,298.61z M171.94,269.53l-16.04,28.5l36.59-27.11L171.94,269.53z"/>
				</g>
				<g>
					<path class="st3" d="M155.5,298.61c-0.01,0-0.02,0-0.02,0c-0.05-0.01-0.09-0.05-0.1-0.11l-3.16-25.13
						c-0.01-0.06,0.04-0.13,0.1-0.14l19.5-3.95c0.02-0.01,0.03-0.01,0.05-0.01c0.04,0,0.07,0.02,0.1,0.05l0,0
						c0.03,0.03,0.03,0.08,0.02,0.12c-0.01,0.02-0.01,0.03-0.02,0.04l-16.36,29.06C155.59,298.58,155.54,298.61,155.5,298.61z
						 M152.48,273.45l3.1,24.64l16.05-28.51L152.48,273.45z"/>
				</g>
				<g>
					<path class="st3" d="M239.18,272.11C239.18,272.11,239.18,272.11,239.18,272.11l-46.35-1.17c-0.04,0-0.08-0.02-0.1-0.05
						c-0.02-0.03-0.03-0.07-0.02-0.11l6.09-18.91c0.02-0.05,0.06-0.09,0.12-0.09h0c0.03,0,0.05,0.01,0.08,0.03l40.24,20.07
						c0.05,0.03,0.08,0.08,0.07,0.14C239.29,272.08,239.24,272.11,239.18,272.11z M193,270.7l45.62,1.15l-39.63-19.76L193,270.7z"/>
				</g>
				<g>
					<path class="st3" d="M192.83,270.94C192.83,270.94,192.83,270.94,192.83,270.94l-20.97-1.42c-0.05,0-0.1-0.04-0.11-0.09
						c-0.01-0.05,0.01-0.11,0.05-0.14l27.03-17.48c0.02-0.02,0.05-0.04,0.09-0.04h0c0.05,0,0.1,0.03,0.12,0.09l0,0
						c0.01,0.03,0.01,0.07-0.01,0.1l-6.08,18.89C192.93,270.91,192.89,270.94,192.83,270.94z M172.26,269.3l20.49,1.38l5.95-18.48
						L172.26,269.3z"/>
				</g>
				<g>
					<path class="st3" d="M239.18,272.11c-0.01,0-0.03,0-0.04-0.01c-0.05-0.02-0.08-0.06-0.09-0.11l-1.89-46.19
						c-0.01-0.03-0.01-0.06,0-0.09c0.02-0.05,0.08-0.08,0.14-0.07c0.02,0,0.05,0.02,0.07,0.03l24.17,18.18
						c0.03,0.02,0.04,0.05,0.05,0.08c0,0.03-0.01,0.07-0.03,0.09l-22.29,28.04C239.26,272.1,239.22,272.11,239.18,272.11z
						 M237.43,226.03l1.86,45.62l22-27.68L237.43,226.03z"/>
				</g>
				<g>
					<path class="st3" d="M239.18,272.11c-0.02,0-0.04,0-0.06-0.01l-40.26-20.08c-0.04-0.02-0.07-0.06-0.07-0.1
						c0-0.04,0.02-0.09,0.05-0.11l38.37-26.15c0.03-0.02,0.06-0.03,0.09-0.02c0.06,0.01,0.11,0.06,0.11,0.12l1.89,46.23
						c0,0.04-0.02,0.09-0.06,0.11C239.23,272.11,239.21,272.11,239.18,272.11z M199.17,251.89l39.88,19.89l-1.87-45.79
						L199.17,251.89z"/>
				</g>
				<g>
					<path class="st3" d="M261.47,244.07c-0.03,0-0.05-0.01-0.07-0.02c-0.03-0.02-0.05-0.07-0.05-0.11l2.73-49.91
						c0-0.06,0.05-0.11,0.11-0.12l0,0c0.04-0.01,0.07,0.01,0.1,0.04l36.05,36.07c0.03,0.03,0.04,0.07,0.03,0.12
						c-0.01,0.04-0.04,0.08-0.08,0.09l-38.78,13.83C261.5,244.07,261.49,244.07,261.47,244.07z M264.31,194.32l-2.7,49.44
						l38.42-13.7L264.31,194.32z"/>
				</g>
				<g>
					<path class="st3" d="M261.47,244.07c-0.03,0-0.05-0.01-0.08-0.02l-24.18-18.19c-0.03-0.02-0.05-0.05-0.05-0.09
						c0-0.03,0.01-0.07,0.03-0.09l26.89-31.7c0.02-0.04,0.06-0.06,0.1-0.07l0,0c0.05-0.01,0.1,0.02,0.12,0.07
						c0.02,0.03,0.02,0.07,0.01,0.1l-2.72,49.87c0,0.05-0.03,0.09-0.07,0.11C261.51,244.07,261.49,244.07,261.47,244.07z
						 M237.47,225.74l23.89,17.97l2.69-49.3L237.47,225.74z"/>
				</g>
				<g>
					<path class="st3" d="M300.25,230.24c0,0-0.01,0-0.01,0c-0.05,0-0.09-0.03-0.1-0.08l-18.96-45.34c-0.01-0.03-0.01-0.06,0-0.09
						l0,0c0.02-0.04,0.05-0.07,0.09-0.08c0.04-0.01,0.09,0.01,0.12,0.04l27.72,31.36c0.04,0.04,0.04,0.1,0.01,0.15l-8.77,13.99
						C300.33,230.22,300.29,230.24,300.25,230.24z M281.7,185.41l18.57,44.43l8.59-13.7L281.7,185.41z"/>
				</g>
				<g>
					<path class="st3" d="M300.25,230.24c-0.03,0-0.06-0.01-0.09-0.04l-36.05-36.07c-0.03-0.03-0.04-0.07-0.04-0.11
						c0.01-0.04,0.03-0.07,0.06-0.09l17.09-9.27c0.05-0.03,0.1-0.02,0.14,0.02c0.02,0.02,0.03,0.04,0.04,0.07l18.95,45.33
						c0.02,0.06,0,0.12-0.05,0.15C300.3,230.23,300.27,230.24,300.25,230.24z M264.41,194.07l35.48,35.51l-18.66-44.63
						L264.41,194.07z"/>
				</g>
				<g>
					<path class="st3" d="M309.02,216.25c-0.04,0-0.07-0.01-0.09-0.04c-0.03-0.04-0.04-0.1-0.02-0.14l30.18-56.22
						c0.01-0.02,0.02-0.05,0.04-0.06c0.04-0.04,0.1-0.04,0.14-0.02c0.03,0.02,0.06,0.04,0.07,0.08c0,0,0,0,0,0.01l16.42,38.09
						c0.01,0.03,0.01,0.07,0,0.1c-0.01,0.03-0.04,0.06-0.07,0.07l-46.63,18.14C309.05,216.25,309.03,216.25,309.02,216.25z
						 M339.2,160.17l-29.92,55.72l46.19-17.97L339.2,160.17z"/>
				</g>
				<g>
					<path class="st3" d="M309.02,216.25c-0.04,0-0.07-0.02-0.09-0.04l-27.72-31.36c-0.03-0.03-0.04-0.07-0.03-0.11
						c0.01-0.04,0.04-0.07,0.07-0.09l57.92-24.89c0.03-0.01,0.07-0.01,0.11,0c0.03,0.02,0.06,0.04,0.07,0.08
						c0.01,0.03,0.01,0.07-0.01,0.1l-30.2,56.25c-0.02,0.04-0.06,0.06-0.1,0.06C309.03,216.25,309.02,216.25,309.02,216.25z
						 M281.5,184.82l27.49,31.1l29.95-55.78L281.5,184.82z"/>
				</g>
				<g>
					<path class="st3" d="M355.64,198.11c-0.03,0-0.05-0.01-0.07-0.02c-0.04-0.03-0.06-0.08-0.05-0.13l12.37-55.83
						c0.01-0.03,0.03-0.06,0.06-0.08c0.03-0.02,0.07-0.02,0.1-0.01l0,0c0.03,0.01,0.06,0.03,0.07,0.06l20.53,36.34
						c0.03,0.06,0.01,0.13-0.05,0.17l-32.91,19.49C355.69,198.11,355.67,198.11,355.64,198.11z M368.07,142.5l-12.24,55.24
						l32.55-19.28L368.07,142.5z"/>
				</g>
				<g>
					<path class="st3" d="M355.64,198.11c-0.05,0-0.09-0.03-0.11-0.08l-16.43-38.11c-0.02-0.06,0-0.12,0.05-0.16l28.78-17.7
						c0.01-0.01,0.02-0.01,0.03-0.02c0.03-0.02,0.07-0.02,0.1-0.01l0,0c0.05,0.01,0.08,0.05,0.09,0.1c0,0.03,0,0.05-0.01,0.08
						l-12.37,55.8c-0.01,0.05-0.06,0.09-0.11,0.1C355.65,198.11,355.65,198.11,355.64,198.11z M339.37,159.93l16.24,37.66
						l12.23-55.16L339.37,159.93z"/>
				</g>
				<g>
					<path class="st3" d="M388.55,178.62c-0.03,0-0.05-0.01-0.07-0.02c-0.04-0.03-0.06-0.07-0.05-0.11l5.12-54.36
						c0-0.06,0.04-0.1,0.09-0.12c0.05-0.02,0.11,0.01,0.14,0.05l25.35,40.2c0.02,0.03,0.02,0.07,0.01,0.1
						c-0.01,0.03-0.03,0.06-0.07,0.08l-30.47,14.17C388.59,178.62,388.57,178.62,388.55,178.62z M393.76,124.5l-5.06,53.79
						l30.14-14.02L393.76,124.5z"/>
				</g>
				<g>
					<path class="st3" d="M388.55,178.62c-0.04,0-0.09-0.02-0.11-0.06l-20.53-36.34c-0.03-0.06-0.02-0.13,0.04-0.16l25.64-18.04
						c0.04-0.03,0.09-0.03,0.13-0.01c0.04,0.02,0.07,0.06,0.07,0.11c0,0,0,0.01,0,0.02l-5.12,54.37c-0.01,0.05-0.04,0.1-0.1,0.11
						C388.57,178.62,388.56,178.62,388.55,178.62z M368.19,142.19l20.28,35.89l5.06-53.71L368.19,142.19z"/>
				</g>
				<g>
					<path class="st3" d="M419.02,164.45c-0.01,0-0.02,0-0.03,0c-0.05-0.01-0.08-0.05-0.09-0.1l-9.27-47.31
						c-0.01-0.02-0.01-0.04-0.01-0.07c0.01-0.07,0.07-0.11,0.14-0.1l40.58,6.21c0.04,0.01,0.08,0.04,0.1,0.08
						c0.02,0.04,0.01,0.09-0.02,0.12l-31.31,41.12C419.09,164.43,419.06,164.45,419.02,164.45z M409.9,117.14l9.18,46.88
						l31.01-40.73L409.9,117.14z"/>
				</g>
				<g>
					<path class="st3" d="M419.02,164.45c-0.04,0-0.08-0.02-0.11-0.06l-25.35-40.2c-0.02-0.03-0.02-0.07-0.01-0.1
						c0.01-0.03,0.04-0.06,0.07-0.08l16.08-7.13c0.03-0.01,0.06-0.01,0.08-0.01c0.05,0.01,0.08,0.05,0.09,0.1l9.27,47.33
						c0.01,0.06-0.02,0.12-0.08,0.14C419.05,164.44,419.03,164.45,419.02,164.45z M393.85,124.18l24.91,39.51l-9.11-46.52
						L393.85,124.18z"/>
				</g>
				<g>
					<path class="st3" d="M450.32,123.33c-0.06,0-0.12-0.05-0.12-0.11l-2.76-29.85c0-0.05,0.02-0.1,0.07-0.12l0,0
						c0.04-0.02,0.09-0.02,0.13,0.01l41.17,28.67c0.04,0.03,0.06,0.09,0.05,0.14c-0.02,0.05-0.06,0.09-0.12,0.09L450.32,123.33
						C450.33,123.33,450.33,123.33,450.32,123.33z M447.72,93.6l2.72,29.47l37.92-1.17L447.72,93.6z"/>
				</g>
				<g>
					<path class="st3" d="M450.32,123.33c-0.01,0-0.01,0-0.02,0l-40.58-6.21c-0.05-0.01-0.09-0.05-0.1-0.1
						c-0.01-0.05,0.01-0.1,0.06-0.13l37.81-23.63c0.01,0,0.01-0.01,0.02-0.01l0,0c0.06-0.03,0.13-0.01,0.16,0.05
						c0.01,0.03,0.02,0.05,0.01,0.08l2.75,29.82c0,0.04-0.01,0.08-0.04,0.1C450.39,123.32,450.36,123.33,450.32,123.33z
						 M410.1,116.92l40.09,6.14l-2.72-29.49L410.1,116.92z"/>
				</g>
				<g>
					<path class="st3" d="M488.74,122.14c-0.03,0-0.05-0.01-0.07-0.02c-0.04-0.03-0.06-0.09-0.04-0.14l16.96-45.34
						c0-0.01,0.01-0.02,0.02-0.04c0.04-0.05,0.11-0.07,0.16-0.04c0.05,0.03,0.08,0.09,0.06,0.14l-5.73,36.93
						c0,0.03-0.02,0.06-0.05,0.08l-11.22,8.41C488.8,122.13,488.77,122.14,488.74,122.14z M505.39,77.86l-16.38,43.81l10.84-8.12
						L505.39,77.86z"/>
				</g>
				<g>
					<path class="st3" d="M488.74,122.14c-0.03,0-0.05-0.01-0.07-0.02L447.5,93.45c-0.04-0.03-0.06-0.08-0.05-0.12
						c0.01-0.05,0.04-0.09,0.09-0.1l58.12-16.68c0.03-0.01,0.07-0.01,0.1,0.01c0.06,0.03,0.08,0.09,0.06,0.15l-16.96,45.35
						c-0.01,0.04-0.04,0.06-0.08,0.08C488.77,122.14,488.76,122.14,488.74,122.14z M447.86,93.4l40.82,28.43l16.81-44.97
						L447.86,93.4z"/>
				</g>
				<g>
					<path class="st3" d="M499.97,113.74c-0.03,0-0.07-0.01-0.09-0.04c-0.04-0.04-0.05-0.1-0.02-0.14l32.5-65.54
						c0.02-0.04,0.06-0.07,0.11-0.07h0c0.06,0,0.11,0.04,0.12,0.1l9.2,46.2c0.01,0.06-0.02,0.11-0.07,0.14l-41.7,19.34
						C500,113.73,499.99,113.74,499.97,113.74z M532.42,48.45l-32.18,64.89l41.29-19.15L532.42,48.45z"/>
				</g>
				<g>
					<path class="st3" d="M499.97,113.74c-0.01,0-0.03,0-0.04-0.01c-0.06-0.02-0.1-0.08-0.09-0.14l5.73-36.95
						c0-0.02,0.02-0.05,0.03-0.07L532.36,48c0.02-0.03,0.06-0.05,0.1-0.05h0c0.05,0,0.09,0.03,0.11,0.08
						c0.02,0.04,0.01,0.09-0.01,0.12l-32.49,65.52C500.06,113.71,500.01,113.74,499.97,113.74z M505.82,76.72l-5.61,36.11
						l31.76-64.05L505.82,76.72z"/>
				</g>
				<g>
					<path class="st3" d="M541.67,94.4c-0.03,0-0.06-0.01-0.08-0.03c-0.04-0.04-0.06-0.1-0.04-0.15l26.7-61.69
						c0.03-0.06,0.09-0.09,0.16-0.07c0.05,0.02,0.09,0.07,0.08,0.12l6.32,39.08c0.01,0.05-0.01,0.1-0.05,0.12l-33.02,22.59
						C541.72,94.39,541.69,94.4,541.67,94.4z M568.31,33.03l-26.35,60.9l32.6-22.3L568.31,33.03z"/>
				</g>
				<g>
					<path class="st3" d="M541.67,94.4c0,0-0.01,0-0.01,0c-0.05-0.01-0.1-0.05-0.11-0.1l-9.2-46.2c-0.01-0.06,0.02-0.12,0.07-0.14
						l35.87-15.48c0.03-0.03,0.08-0.03,0.12-0.02c0.06,0.02,0.1,0.09,0.08,0.15l0,0.01c0,0.01-0.01,0.02-0.01,0.03l-26.69,61.67
						C541.76,94.37,541.72,94.4,541.67,94.4z M532.61,48.15l9.1,45.71l26.41-61.03L532.61,48.15z"/>
				</g>
				<g>
					<path class="st3" d="M574.69,71.8c-0.01,0-0.03,0-0.04-0.01c-0.05-0.02-0.08-0.06-0.08-0.12l-0.48-53.23c0-0.01,0-0.03,0-0.04
						c0.01-0.06,0.07-0.1,0.14-0.09c0.05,0.01,0.1,0.04,0.11,0.1l14.02,37.26c0.02,0.04,0.01,0.09-0.02,0.13l-13.54,15.97
						C574.76,71.79,574.73,71.8,574.69,71.8z M574.34,19.14l0.47,52.2l13.28-15.65L574.34,19.14z"/>
				</g>
				<g>
					<path class="st3" d="M574.69,71.8c-0.06,0-0.11-0.04-0.12-0.11l-6.33-39.09c0-0.02,0-0.05,0.01-0.07l5.84-14.15
						c0.02-0.06,0.07-0.09,0.13-0.09c0.06,0.01,0.11,0.07,0.11,0.13l0.48,53.24c0,0.07-0.05,0.12-0.11,0.13
						C574.7,71.8,574.69,71.8,574.69,71.8z M568.49,32.6l6.06,37.43l-0.46-50.98L568.49,32.6z"/>
				</g>
				<g>
					<path class="st3" d="M65.81,395.17c-0.03,0-0.06-0.01-0.09-0.03c-0.04-0.04-0.05-0.11-0.02-0.16l36.02-54.5c0,0,0,0,0,0l0,0
						c0.04-0.05,0.11-0.07,0.17-0.03c0.05,0.03,0.07,0.09,0.05,0.14l-4.51,31.08c0,0.03-0.02,0.06-0.05,0.08l-31.5,23.4
						C65.86,395.16,65.83,395.17,65.81,395.17z M101.62,341.08l-35.32,53.44l30.89-22.95L101.62,341.08z"/>
				</g>
				<g>
					<path class="st3" d="M65.81,395.17c-0.01,0-0.02,0-0.04-0.01c-0.05-0.02-0.09-0.07-0.09-0.12l0.45-23.34
						c0-0.04,0.02-0.07,0.04-0.09l35.56-31.16c0.04-0.04,0.11-0.05,0.16-0.02c0.06,0.04,0.07,0.11,0.04,0.17l-36.02,54.5
						C65.89,395.15,65.85,395.17,65.81,395.17z M66.38,371.77l-0.44,22.85l35.27-53.36L66.38,371.77z"/>
				</g>
				<g>
					<path class="st3" d="M97.31,371.77c-0.04,0-0.08-0.02-0.11-0.06c-0.03-0.04-0.02-0.1,0.01-0.14l40.55-51.02
						c0.03-0.04,0.09-0.06,0.14-0.04c0.05,0.02,0.08,0.06,0.08,0.12v0l7.75,41.83c0.01,0.07-0.03,0.13-0.1,0.15l-48.3,9.17
						C97.33,371.77,97.32,371.77,97.31,371.77z M137.79,320.92l-40.17,50.54l47.85-9.08L137.79,320.92z"/>
				</g>
				<g>
					<path class="st3" d="M97.31,371.77c-0.02,0-0.03,0-0.05-0.01c-0.05-0.02-0.08-0.08-0.07-0.13l4.52-31.09
						c0.01-0.04,0.03-0.07,0.06-0.09l36.02-19.91c0.03-0.03,0.08-0.03,0.12-0.02c0.05,0.02,0.08,0.06,0.08,0.12v0
						c0,0.03-0.01,0.07-0.04,0.09l-40.54,51C97.38,371.75,97.35,371.77,97.31,371.77z M101.94,340.63L97.5,371.2l39.87-50.16
						L101.94,340.63z"/>
				</g>
				<g>
					<path class="st3" d="M145.61,362.6c-0.02,0-0.04,0-0.06-0.01c-0.05-0.02-0.07-0.08-0.06-0.13l9.89-64
						c0.01-0.06,0.06-0.11,0.12-0.11c0.06,0,0.12,0.05,0.12,0.11l0,0l14.6,41.2c0.02,0.05,0,0.1-0.03,0.13l-24.49,22.77
						C145.67,362.59,145.64,362.6,145.61,362.6z M155.55,298.99l-9.76,63.15l24.17-22.47L155.55,298.99z"/>
				</g>
				<g>
					<path class="st3" d="M145.61,362.6c-0.06,0-0.11-0.04-0.12-0.1l-7.75-41.85c-0.01-0.04,0-0.07,0.03-0.1l17.63-22.13
						c0.02-0.04,0.06-0.07,0.11-0.07c0.06,0,0.12,0.05,0.12,0.11l0,0c0,0.02,0,0.03,0,0.05l-9.88,63.98
						C145.73,362.56,145.67,362.6,145.61,362.6C145.61,362.6,145.61,362.6,145.61,362.6z M137.99,320.66l7.61,41.07l9.7-62.8
						L137.99,320.66z"/>
				</g>
				<g>
					<path class="st3" d="M170.11,339.83c-0.03,0-0.07-0.01-0.09-0.04c-0.03-0.03-0.04-0.08-0.03-0.13l22.72-68.89
						c0.02-0.06,0.07-0.09,0.13-0.08l0,0c0.05,0.01,0.09,0.04,0.11,0.09l15.88,57.16c0.02,0.07-0.02,0.13-0.08,0.15l-38.6,11.72
						C170.13,339.83,170.12,339.83,170.11,339.83z M192.82,271.24l-22.52,68.27l38.25-11.62L192.82,271.24z"/>
				</g>
				<g>
					<path class="st3" d="M170.11,339.83c-0.05,0-0.1-0.03-0.12-0.08l-14.61-41.22c-0.02-0.05,0-0.11,0.04-0.14l37.31-27.65
						c0.03-0.03,0.07-0.05,0.11-0.04l0,0c0.05,0.01,0.09,0.04,0.11,0.09c0.01,0.04,0,0.07-0.02,0.1l-22.71,68.86
						C170.21,339.79,170.16,339.83,170.11,339.83C170.11,339.83,170.11,339.83,170.11,339.83z M155.65,298.53l14.45,40.79
						l22.48-68.16L155.65,298.53z"/>
				</g>
				<g>
					<path class="st3" d="M208.71,328.11c-0.03,0-0.05-0.01-0.07-0.02c-0.05-0.04-0.06-0.1-0.04-0.16l30.46-55.96
						c0.01-0.03,0.02-0.05,0.05-0.07c0.05-0.04,0.11-0.03,0.16,0c0.02,0.02,0.03,0.04,0.04,0.06l7.79,17.27
						c0.02,0.05,0.01,0.1-0.02,0.14l-38.27,38.71C208.77,328.09,208.74,328.11,208.71,328.11z M239.17,272.27l-29.93,54.99
						l37.59-38.02L239.17,272.27z"/>
				</g>
				<g>
					<path class="st3" d="M208.71,328.11c0,0-0.01,0-0.01,0c-0.05-0.01-0.09-0.04-0.11-0.09l-15.88-57.16
						c-0.01-0.04,0-0.08,0.02-0.11c0.02-0.03,0.06-0.05,0.1-0.05l46.35,1.17c0.03,0,0.06,0.01,0.08,0.03
						c0.05,0.04,0.06,0.11,0.03,0.16l-30.48,55.99C208.8,328.08,208.75,328.11,208.71,328.11z M193,270.95l15.75,56.7l30.23-55.54
						L193,270.95z"/>
				</g>
				<g>
					<path class="st3" d="M246.98,289.4c-0.04,0-0.08-0.02-0.1-0.05c-0.02-0.03-0.03-0.08-0.02-0.11l14.49-45.31
						c0.01-0.04,0.03-0.07,0.07-0.09c0.06-0.03,0.14-0.01,0.17,0.06c0,0,0,0,0,0l21.68,43.99c0.02,0.04,0.02,0.08,0,0.12
						c-0.02,0.04-0.06,0.06-0.1,0.06L246.98,289.4C246.98,289.4,246.98,289.4,246.98,289.4z M261.5,244.28l-14.35,44.86l35.8-1.33
						L261.5,244.28z"/>
				</g>
				<g>
					<path class="st3" d="M246.98,289.4c-0.05,0-0.09-0.03-0.11-0.07l-7.8-17.28c-0.02-0.04-0.01-0.09,0.02-0.13l22.29-28.04
						c0.03-0.03,0.07-0.05,0.11-0.05c0.04,0,0.08,0.03,0.1,0.07c0.01,0.03,0.02,0.06,0.01,0.09l-14.49,45.32
						C247.08,289.36,247.04,289.4,246.98,289.4C246.98,289.4,246.98,289.4,246.98,289.4z M239.33,272.01l7.63,16.92l14.19-44.37
						L239.33,272.01z"/>
				</g>
				<g>
					<path class="st3" d="M283.15,288.06c-0.02,0-0.04,0-0.05-0.01c-0.06-0.03-0.08-0.09-0.07-0.15l17.1-57.82
						c0.02-0.05,0.06-0.09,0.12-0.09h0c0.06,0,0.1,0.04,0.12,0.09l0,0l3.6,26.53c0,0.03,0,0.06-0.02,0.09L283.25,288
						C283.23,288.04,283.19,288.06,283.15,288.06z M300.2,230.71l-16.7,56.46l20.21-30.57L300.2,230.71z"/>
				</g>
				<g>
					<path class="st3" d="M283.15,288.06c-0.05,0-0.09-0.03-0.11-0.07L261.36,244c-0.02-0.03-0.02-0.07,0-0.1
						c0.01-0.03,0.04-0.06,0.07-0.07l38.75-13.82c0.02-0.01,0.04-0.02,0.07-0.02h0c0.06,0,0.1,0.04,0.12,0.09l0,0
						c0.01,0.03,0.01,0.06-0.01,0.09l-17.09,57.8c-0.01,0.05-0.06,0.08-0.11,0.09C283.15,288.06,283.15,288.06,283.15,288.06z
						 M261.65,244.02l21.47,43.57l16.94-57.28L261.65,244.02z"/>
				</g>
				<g>
					<path class="st3" d="M324.08,258.03C324.08,258.03,324.07,258.03,324.08,258.03l-20.24-1.27c-0.03,0-0.07-0.02-0.09-0.04
						c-0.02-0.03-0.03-0.06-0.03-0.1l5.17-40.5c0.01-0.05,0.05-0.1,0.1-0.11l0,0c0.06-0.01,0.12,0.02,0.14,0.08l15.06,41.77
						c0.01,0.04,0.01,0.08-0.02,0.12C324.16,258.01,324.12,258.03,324.08,258.03z M303.99,256.51l19.91,1.25l-14.83-41.11
						L303.99,256.51z"/>
				</g>
				<g>
					<path class="st3" d="M303.85,256.75c-0.06,0-0.12-0.05-0.12-0.11l-3.6-26.51c0-0.03,0-0.06,0.02-0.08l8.75-13.97
						c0.02-0.04,0.05-0.07,0.1-0.08l0,0c0.05,0,0.1,0.01,0.12,0.05c0.02,0.03,0.03,0.07,0.01,0.11l-5.16,40.47
						C303.96,256.71,303.91,256.75,303.85,256.75L303.85,256.75z M300.38,230.14l3.46,25.53l4.97-38.99L300.38,230.14z"/>
				</g>
				<g>
					<path class="st3" d="M324.08,258.03c-0.03,0-0.06-0.01-0.08-0.03c-0.05-0.04-0.06-0.1-0.03-0.15l31.57-59.92
						c0.03-0.06,0.09-0.08,0.15-0.06c0.05,0.02,0.08,0.07,0.08,0.12l4.71,30.65c0.01,0.04-0.01,0.09-0.04,0.12L324.16,258
						C324.14,258.02,324.11,258.03,324.08,258.03z M355.58,198.38l-31.1,59.05l35.75-28.82L355.58,198.38z"/>
				</g>
				<g>
					<path class="st3" d="M324.08,258.03C324.08,258.03,324.07,258.03,324.08,258.03c-0.06,0-0.1-0.04-0.12-0.08l-15.06-41.77
						c-0.02-0.06,0.01-0.13,0.07-0.16l46.6-18.13c0.03-0.02,0.08-0.03,0.12-0.02c0.06,0.02,0.09,0.08,0.08,0.14l0,0
						c0,0.02-0.01,0.04-0.02,0.05l-31.55,59.9C324.17,258,324.13,258.03,324.08,258.03z M309.18,216.2l14.93,41.39l31.27-59.37
						L309.18,216.2z"/>
				</g>
				<g>
					<path class="st3" d="M360.35,228.78c-0.03,0-0.06-0.01-0.08-0.03c-0.05-0.04-0.06-0.1-0.03-0.16l28.19-50.16
						c0.03-0.05,0.09-0.08,0.15-0.06l0,0c0.06,0.02,0.09,0.08,0.08,0.14l-4.74,30.64c0,0.03-0.02,0.06-0.04,0.08l-23.46,19.52
						C360.41,228.77,360.38,228.78,360.35,228.78z M388.32,179.14l-27.53,48.98l22.9-19.06L388.32,179.14z"/>
				</g>
				<g>
					<path class="st3" d="M360.35,228.78c-0.01,0-0.01,0-0.02,0c-0.05-0.01-0.09-0.05-0.1-0.1l-4.71-30.67
						c-0.01-0.05,0.02-0.1,0.06-0.13l32.88-19.48c0.03-0.03,0.08-0.04,0.13-0.03l0,0c0.05,0.02,0.08,0.06,0.08,0.11
						c0,0.04-0.01,0.08-0.04,0.1l-28.18,50.13C360.44,228.76,360.4,228.78,360.35,228.78z M355.78,198.05l4.64,30.23l27.78-49.43
						L355.78,198.05z"/>
				</g>
				<g>
					<path class="st3" d="M383.81,209.26c-0.04,0-0.08-0.02-0.11-0.06c-0.03-0.04-0.02-0.1,0.01-0.14l35.2-44.82
						c0.02-0.03,0.06-0.05,0.09-0.05c0.03,0,0.07,0.01,0.1,0.04l0,0c0.01,0.01,0.02,0.02,0.02,0.03l17.26,33.68
						c0.02,0.03,0.02,0.08,0,0.11c-0.02,0.04-0.05,0.06-0.09,0.07l-52.47,11.14C383.83,209.26,383.82,209.26,383.81,209.26z
						 M418.99,164.55l-34.87,44.39l51.98-11.03L418.99,164.55z"/>
				</g>
				<g>
					<path class="st3" d="M383.81,209.26c-0.02,0-0.03,0-0.05-0.01c-0.05-0.02-0.08-0.08-0.07-0.13l4.74-30.64
						c0.01-0.04,0.03-0.08,0.07-0.09l30.43-14.16c0.02-0.02,0.05-0.03,0.07-0.03c0.03,0,0.07,0.01,0.1,0.04l0,0
						c0.03,0.03,0.04,0.07,0.03,0.11c-0.01,0.03-0.02,0.06-0.05,0.08l-35.18,44.79C383.88,209.24,383.85,209.26,383.81,209.26z
						 M388.66,178.58l-4.66,30.1l34.58-44.02L388.66,178.58z"/>
				</g>
				<g>
					<path class="st3" d="M436.28,198.12c-0.02,0-0.03,0-0.05-0.01c-0.05-0.02-0.08-0.08-0.07-0.14l14.04-74.77
						c0-0.02,0.01-0.05,0.02-0.07c0.04-0.06,0.15-0.07,0.2-0.01c0.01,0.01,0.02,0.03,0.03,0.05l14.52,37.34
						c0.02,0.04,0.01,0.09-0.02,0.12l-28.57,37.44C436.36,198.11,436.32,198.12,436.28,198.12z M450.37,123.66L436.5,197.5
						l28.21-36.97L450.37,123.66z"/>
				</g>
				<g>
					<path class="st3" d="M436.28,198.12c-0.05,0-0.09-0.03-0.11-0.07l-17.26-33.68c-0.02-0.04-0.02-0.09,0.01-0.13l31.31-41.12
						c0.05-0.06,0.15-0.06,0.2,0c0.02,0.03,0.03,0.07,0.03,0.1l-14.04,74.79c-0.01,0.05-0.05,0.09-0.11,0.1
						C436.29,198.12,436.29,198.12,436.28,198.12z M419.16,164.34l17.06,33.28l13.88-73.92L419.16,164.34z"/>
				</g>
				<g>
					<path class="st3" d="M496.26,164.98c-0.01,0-0.01,0-0.02,0l-31.41-4.3c-0.04-0.01-0.08-0.03-0.1-0.07
						c-0.02-0.04-0.02-0.08,0.01-0.12l23.88-38.51c0.01-0.03,0.03-0.05,0.06-0.07c0.05-0.03,0.1-0.02,0.14,0.01
						c0.03,0.02,0.05,0.06,0.05,0.1l7.52,42.82c0.01,0.04-0.01,0.08-0.03,0.11C496.33,164.97,496.3,164.98,496.26,164.98z
						 M465.06,160.46l31.05,4.25l-7.43-42.34L465.06,160.46z"/>
				</g>
				<g>
					<path class="st3" d="M464.85,160.68c0,0-0.01,0-0.01,0c-0.05,0-0.09-0.04-0.11-0.08l-14.53-37.35
						c-0.01-0.04-0.01-0.08,0.01-0.11c0.02-0.03,0.06-0.05,0.1-0.06l38.42-1.19c0.03,0,0.06,0.01,0.08,0.03
						c0.05,0.04,0.06,0.11,0.03,0.16l-23.89,38.54C464.94,160.66,464.9,160.68,464.85,160.68z M450.51,123.32l14.38,36.95
						l23.64-38.13L450.51,123.32z"/>
				</g>
				<g>
					<path class="st3" d="M496.26,164.98c-0.02,0-0.05-0.01-0.07-0.02c-0.04-0.02-0.06-0.07-0.06-0.12l3.7-51.24
						c0-0.03,0.01-0.06,0.04-0.08l0,0c0.03-0.03,0.07-0.04,0.11-0.03c0.04,0.01,0.07,0.04,0.09,0.07l16.73,39.22
						c0.02,0.06,0,0.12-0.05,0.16l-20.43,12.03C496.31,164.98,496.29,164.98,496.26,164.98z M500.05,114.13l-3.65,50.49l20.13-11.85
						L500.05,114.13z"/>
				</g>
				<g>
					<path class="st3" d="M496.26,164.98c-0.06,0-0.11-0.04-0.12-0.1l-7.52-42.84c-0.01-0.05,0.01-0.09,0.05-0.12l11.22-8.41
						c0.05-0.04,0.13-0.03,0.17,0.02c0.03,0.03,0.03,0.07,0.03,0.1l-3.7,51.23C496.39,164.93,496.33,164.98,496.26,164.98
						C496.27,164.98,496.27,164.98,496.26,164.98z M488.88,122.07l7.33,41.77l3.61-49.96L488.88,122.07z"/>
				</g>
				<g>
					<path class="st3" d="M516.69,152.95c-0.03,0-0.06-0.01-0.08-0.03c-0.04-0.04-0.06-0.09-0.04-0.15l24.97-58.55
						c0-0.01,0.01-0.02,0.02-0.03l0,0c0.03-0.04,0.08-0.05,0.12-0.05c0.05,0.01,0.08,0.04,0.1,0.09l10.71,34.15
						c0.02,0.05,0,0.11-0.05,0.14l-35.69,24.4C516.74,152.95,516.72,152.95,516.69,152.95z M541.65,94.63l-24.67,57.85l35.26-24.11
						L541.65,94.63z"/>
				</g>
				<g>
					<path class="st3" d="M516.69,152.95c-0.05,0-0.1-0.03-0.11-0.08l-16.73-39.22c-0.03-0.06,0-0.13,0.06-0.16l41.7-19.34
						c0.05-0.02,0.12-0.01,0.15,0.04c0.03,0.04,0.04,0.1,0.01,0.14l-24.97,58.54C516.79,152.92,516.74,152.95,516.69,152.95z
						 M500.13,113.67l16.56,38.84l24.73-57.99L500.13,113.67z"/>
				</g>
				<g>
					<path class="st3" d="M552.38,128.55c-0.03,0-0.05-0.01-0.07-0.02c-0.05-0.03-0.06-0.09-0.04-0.15l22.31-56.73
						c0-0.02,0.02-0.04,0.03-0.06c0.04-0.04,0.11-0.05,0.16-0.02c0.01,0.01,0.02,0.02,0.03,0.03l21.52,19.04
						c0.03,0.02,0.04,0.06,0.04,0.09c0,0.04-0.02,0.07-0.04,0.09l-43.84,37.69C552.44,128.54,552.41,128.55,552.38,128.55z
						 M574.74,71.89L552.68,128l43.35-37.27L574.74,71.89z"/>
				</g>
				<g>
					<path class="st3" d="M552.38,128.55C552.38,128.55,552.38,128.55,552.38,128.55c-0.06,0-0.1-0.04-0.12-0.09l-10.71-34.15
						c-0.02-0.05,0-0.11,0.05-0.14l33.02-22.59c0.04-0.04,0.1-0.04,0.15-0.01c0.05,0.03,0.06,0.1,0.04,0.16l-22.31,56.75
						C552.48,128.52,552.43,128.55,552.38,128.55z M541.81,94.32l10.58,33.73l22.04-56.04L541.81,94.32z"/>
				</g>
				<g>
					<path class="st3" d="M596.22,90.86c-0.06,0-0.11-0.04-0.12-0.1l-7.99-35.01c-0.02-0.05,0-0.11,0.04-0.14
						c0.05-0.04,0.12-0.03,0.16,0.01l37.36,34.4c0.04,0.03,0.05,0.09,0.03,0.14c-0.02,0.05-0.06,0.08-0.11,0.08L596.22,90.86
						C596.22,90.86,596.22,90.86,596.22,90.86z M588.45,56.08l7.88,34.53L625.28,90L588.45,56.08z"/>
				</g>
				<g>
					<path class="st3" d="M596.22,90.86c-0.03,0-0.06-0.01-0.08-0.03l-21.53-19.06c-0.05-0.05-0.06-0.12-0.01-0.17l13.54-15.97
						c0.03-0.03,0.06-0.05,0.11-0.04c0.04,0,0.08,0.03,0.1,0.07c0,0.01,0.01,0.02,0.01,0.03l7.99,35.02
						c0.01,0.05-0.01,0.11-0.06,0.14C596.27,90.85,596.24,90.86,596.22,90.86z M574.86,71.67l21.15,18.72l-7.85-34.4L574.86,71.67z"
						/>
				</g>
				<g>
					<path class="st3" d="M94.12,419.71c-0.02,0-0.05-0.01-0.07-0.02c-0.04-0.02-0.06-0.07-0.06-0.11l3.19-47.9
						c0-0.02,0-0.04,0-0.06c0.01-0.04,0.04-0.07,0.08-0.08c0.04-0.01,0.08,0,0.12,0.02c0.01,0.01,0.03,0.03,0.03,0.04l27.26,32.39
						c0.02,0.03,0.03,0.07,0.03,0.11c-0.01,0.04-0.03,0.07-0.07,0.09l-30.47,15.52C94.16,419.7,94.14,419.71,94.12,419.71z
						 M97.42,371.97l-3.16,47.4l30.13-15.35L97.42,371.97z"/>
				</g>
				<g>
					<path class="st3" d="M94.12,419.71c-0.03,0-0.06-0.01-0.08-0.03l-28.31-24.54c-0.03-0.02-0.04-0.06-0.04-0.1
						c0-0.04,0.02-0.07,0.05-0.1l31.5-23.4c0.01-0.01,0.02-0.02,0.04-0.02c0.04-0.01,0.08,0,0.12,0.02
						c0.03,0.03,0.05,0.06,0.05,0.11l-3.19,47.94c0,0.05-0.03,0.09-0.08,0.11C94.15,419.7,94.14,419.71,94.12,419.71z M66.01,395.05
						l28.01,24.27l3.16-47.42L66.01,395.05z"/>
				</g>
				<g>
					<path class="st3" d="M124.59,404.18c-0.04,0-0.07-0.02-0.09-0.04c-0.03-0.04-0.04-0.09-0.02-0.14l21.01-41.56
						c0.01-0.02,0.02-0.04,0.04-0.06c0.05-0.04,0.12-0.04,0.17,0.01c0.01,0.01,0.01,0.01,0.02,0.02l18.68,27.93
						c0.02,0.03,0.03,0.07,0.01,0.11c-0.01,0.04-0.04,0.07-0.08,0.08l-39.71,13.65C124.62,404.18,124.6,404.18,124.59,404.18z
						 M145.63,362.73l-20.79,41.11l39.26-13.5L145.63,362.73z"/>
				</g>
				<g>
					<path class="st3" d="M124.59,404.18c-0.04,0-0.07-0.02-0.1-0.04l-27.28-32.41c-0.03-0.03-0.04-0.08-0.02-0.12
						c0.01-0.04,0.05-0.07,0.09-0.08l48.3-9.17c0.04-0.01,0.08,0.01,0.11,0.03c0.04,0.04,0.05,0.1,0.02,0.15l-21.02,41.58
						c-0.02,0.04-0.06,0.06-0.1,0.07C124.6,404.18,124.59,404.18,124.59,404.18z M97.54,371.73l27.02,32.11l20.82-41.18
						L97.54,371.73z"/>
				</g>
				<g>
					<path class="st3" d="M164.3,390.53c-0.01,0-0.02,0-0.04-0.01c-0.06-0.02-0.09-0.07-0.09-0.13l5.81-50.7
						c0-0.02,0.01-0.03,0.02-0.05l0,0c0.03-0.04,0.07-0.07,0.13-0.06c0.05,0.01,0.09,0.05,0.1,0.1l6.45,27.46
						c0.01,0.03,0,0.06-0.01,0.09l-12.26,23.24C164.38,390.51,164.34,390.53,164.3,390.53z M170.15,340.42l-5.65,49.34l11.92-22.61
						L170.15,340.42z"/>
				</g>
				<g>
					<path class="st3" d="M164.3,390.53c-0.04,0-0.08-0.02-0.1-0.06l-18.68-27.93c-0.03-0.05-0.03-0.12,0.02-0.16l24.49-22.77
						c0.05-0.04,0.12-0.04,0.16-0.01c0.04,0.03,0.06,0.09,0.04,0.14l-5.81,50.68c-0.01,0.05-0.04,0.1-0.09,0.11
						C164.32,390.53,164.31,390.53,164.3,390.53z M145.77,362.5l18.44,27.56l5.73-50.03L145.77,362.5z"/>
				</g>
				<g>
					<path class="st3" d="M176.55,367.29c-0.04,0-0.09-0.02-0.11-0.06c-0.02-0.04-0.02-0.1,0.01-0.14l32.14-39.16
						c0.01-0.02,0.02-0.04,0.05-0.05c0.05-0.03,0.11-0.02,0.16,0.02c0.02,0.02,0.03,0.04,0.03,0.06L221,361.5
						c0.01,0.04,0.01,0.08-0.01,0.11c-0.02,0.03-0.05,0.05-0.09,0.06l-44.33,5.62C176.56,367.29,176.56,367.29,176.55,367.29z
						 M208.67,328.23L176.85,367l43.86-5.57L208.67,328.23z"/>
				</g>
				<g>
					<path class="st3" d="M176.55,367.29c-0.01,0-0.02,0-0.03,0c-0.05-0.01-0.08-0.05-0.09-0.09l-6.45-27.46
						c-0.02-0.06,0.02-0.13,0.09-0.15l38.6-11.72c0.04-0.01,0.09,0,0.12,0.03c0.05,0.05,0.05,0.12,0.01,0.17l-32.16,39.18
						C176.63,367.27,176.59,367.29,176.55,367.29z M170.25,339.79l6.36,27.1l31.74-38.67L170.25,339.79z"/>
				</g>
				<g>
					<path class="st3" d="M220.88,361.67c-0.02,0-0.04-0.01-0.06-0.02c-0.05-0.03-0.07-0.09-0.05-0.15l26.1-72.27
						c0.02-0.06,0.1-0.1,0.16-0.08c0.04,0.01,0.07,0.04,0.08,0.08l16.52,26.39c0.03,0.05,0.02,0.11-0.01,0.15l-42.63,45.86
						C220.95,361.65,220.91,361.67,220.88,361.67z M247.01,289.56l-25.8,71.45l42.15-45.34L247.01,289.56z"/>
				</g>
				<g>
					<path class="st3" d="M220.88,361.67c-0.05,0-0.1-0.03-0.12-0.08l-12.17-33.56c-0.02-0.05-0.01-0.1,0.03-0.13l38.25-38.69
						c0.03-0.05,0.09-0.07,0.14-0.05c0.06,0.02,0.1,0.09,0.08,0.15l0,0c0,0,0,0.01-0.01,0.01L221,361.58
						C220.98,361.63,220.93,361.67,220.88,361.67z M208.85,328.01l12.03,33.16l25.79-71.41L208.85,328.01z"/>
				</g>
				<g>
					<path class="st3" d="M263.51,315.81c-0.04,0-0.08-0.02-0.1-0.05c-0.03-0.04-0.03-0.1,0-0.15l19.63-27.75c0,0,0,0,0-0.01
						c0.04-0.05,0.12-0.07,0.17-0.03c0.01,0.01,0.02,0.02,0.03,0.03l14.06,15.57c0.03,0.03,0.04,0.07,0.03,0.11
						c-0.01,0.04-0.04,0.07-0.08,0.09l-33.71,12.17C263.54,315.81,263.53,315.81,263.51,315.81z M283.16,288.13l-19.32,27.3
						L297,303.46L283.16,288.13z"/>
				</g>
				<g>
					<path class="st3" d="M263.51,315.81C263.51,315.81,263.51,315.81,263.51,315.81c-0.05,0-0.08-0.02-0.11-0.06l-16.54-26.41
						c-0.02-0.04-0.03-0.09,0-0.13c0.02-0.04,0.06-0.06,0.11-0.07l36.16-1.34c0.03-0.01,0.06,0,0.09,0.02
						c0.06,0.04,0.07,0.12,0.03,0.17l-19.64,27.75C263.59,315.79,263.55,315.81,263.51,315.81z M247.2,289.39l16.32,26.07
						l19.38-27.39L247.2,289.39z"/>
				</g>
				<g>
					<path class="st3" d="M297.22,303.64c-0.02,0-0.04,0-0.05-0.01c-0.05-0.02-0.08-0.08-0.07-0.13l6.63-46.87
						c0-0.03,0.01-0.07,0.04-0.09c0.05-0.05,0.13-0.04,0.17,0c0,0,0,0,0.01,0.01l17.03,19.55c0.04,0.05,0.04,0.12,0,0.16
						l-23.66,27.34C297.29,303.63,297.25,303.64,297.22,303.64z M303.94,256.92l-6.54,46.2l23.31-26.94L303.94,256.92z"/>
				</g>
				<g>
					<path class="st3" d="M297.22,303.64c-0.03,0-0.07-0.01-0.09-0.04l-14.07-15.58c-0.04-0.04-0.04-0.11-0.01-0.15l20.7-31.31
						c0.02-0.03,0.05-0.05,0.09-0.06c0.04-0.01,0.07,0.01,0.1,0.04c0.03,0.03,0.04,0.07,0.04,0.11l-6.63,46.89
						c-0.01,0.05-0.04,0.09-0.09,0.1C297.24,303.64,297.23,303.64,297.22,303.64z M283.31,287.92l13.83,15.31l6.52-46.08
						L283.31,287.92z"/>
				</g>
				<g>
					<path class="st3" d="M320.88,276.3c-0.03,0-0.07-0.01-0.09-0.04c-0.03-0.03-0.04-0.07-0.03-0.11l3.2-18.24c0,0,0,0,0,0
						c0-0.05,0.03-0.1,0.07-0.12c0.03-0.02,0.08-0.01,0.11,0l35.98,12.18c0.05,0.02,0.09,0.07,0.08,0.13c0,0.06-0.05,0.1-0.11,0.11
						l-39.2,6.08C320.89,276.3,320.89,276.3,320.88,276.3z M324.18,258.07l-3.15,17.96l38.52-5.98L324.18,258.07z"/>
				</g>
				<g>
					<path class="st3" d="M320.88,276.3c-0.04,0-0.07-0.02-0.09-0.04l-17.03-19.55c-0.03-0.04-0.04-0.09-0.02-0.14
						c0.02-0.05,0.08-0.08,0.12-0.07l20.22,1.27c0.03,0,0.06,0.01,0.08,0.03c0.04,0.03,0.06,0.07,0.05,0.12l-3.2,18.27
						c-0.01,0.05-0.04,0.09-0.09,0.1C320.9,276.3,320.89,276.3,320.88,276.3z M304.14,256.77l16.66,19.12l3.13-17.88L304.14,256.77z
						"/>
				</g>
				<g>
					<path class="st3" d="M360.08,270.21c-0.02,0-0.04,0-0.05-0.01c-0.04-0.02-0.07-0.06-0.07-0.11l0.27-41.43
						c0-0.05,0.03-0.1,0.09-0.12l0,0c0.04-0.01,0.08-0.01,0.12,0.02l24.89,19.89c0.03,0.02,0.05,0.06,0.05,0.1
						c0,0.04-0.02,0.07-0.04,0.1l-25.16,21.54C360.14,270.2,360.11,270.21,360.08,270.21z M360.47,228.91l-0.27,40.91l24.84-21.27
						L360.47,228.91z"/>
				</g>
				<g>
					<path class="st3" d="M360.08,270.21c-0.01,0-0.03,0-0.04-0.01l-36-12.19c-0.04-0.01-0.08-0.05-0.08-0.1
						c-0.01-0.04,0.01-0.09,0.04-0.12l36.26-29.23c0.01-0.01,0.03-0.03,0.05-0.03l0,0c0.06-0.02,0.12,0,0.15,0.06
						c0.02,0.03,0.02,0.06,0.01,0.09l-0.27,41.41c0,0.04-0.02,0.08-0.05,0.1C360.13,270.21,360.11,270.21,360.08,270.21z
						 M324.34,257.86l35.62,12.06l0.27-41L324.34,257.86z"/>
				</g>
				<g>
					<path class="st3" d="M385.24,248.67c-0.02,0-0.03,0-0.05-0.01c-0.04-0.02-0.07-0.06-0.08-0.11l-1.43-39.4
						c-0.01-0.06,0.03-0.11,0.08-0.13c0.05-0.02,0.11,0,0.15,0.04l18.26,24.77c0.04,0.05,0.03,0.13-0.02,0.17l-16.83,14.64
						C385.3,248.66,385.27,248.67,385.24,248.67z M383.95,209.53l1.41,38.75l16.55-14.39L383.95,209.53z"/>
				</g>
				<g>
					<path class="st3" d="M385.24,248.67c-0.03,0-0.06-0.01-0.08-0.03l-24.89-19.89c-0.03-0.02-0.05-0.06-0.05-0.1
						c0-0.04,0.02-0.07,0.04-0.1l23.46-19.52c0.04-0.03,0.08-0.04,0.13-0.02c0.04,0.02,0.07,0.06,0.08,0.1c0,0,0,0.01,0,0.01
						l1.43,39.41c0,0.05-0.02,0.09-0.07,0.12C385.28,248.67,385.26,248.67,385.24,248.67z M360.55,228.65l24.56,19.63l-1.42-38.89
						L360.55,228.65z"/>
				</g>
				<g>
					<path class="st3" d="M402.07,234.03c-0.04,0-0.08-0.02-0.1-0.05c-0.03-0.05-0.03-0.11,0.01-0.16l34.19-35.88
						c0.02-0.04,0.07-0.07,0.12-0.06c0.03,0,0.07,0.02,0.09,0.05l16.55,15.44c0.03,0.03,0.05,0.07,0.04,0.11
						c-0.01,0.04-0.04,0.08-0.08,0.09l-50.77,20.46C402.11,234.03,402.09,234.03,402.07,234.03z M436.29,198.18l-33.73,35.4
						l50.06-20.17L436.29,198.18z"/>
				</g>
				<g>
					<path class="st3" d="M402.07,234.03C402.07,234.03,402.07,234.03,402.07,234.03c-0.04,0-0.08-0.02-0.1-0.05l-18.26-24.77
						c-0.03-0.03-0.03-0.08-0.02-0.12c0.02-0.04,0.05-0.07,0.09-0.08l52.47-11.14c0.01,0,0.03,0,0.04,0c0.05,0,0.09,0.04,0.11,0.08
						c0.02,0.04,0.01,0.1-0.02,0.13l-34.21,35.91C402.14,234.02,402.11,234.03,402.07,234.03z M384.03,209.22l18.06,24.5
						l33.83-35.51L384.03,209.22z"/>
				</g>
				<g>
					<path class="st3" d="M452.85,213.57c-0.03,0-0.06-0.01-0.08-0.03c-0.04-0.03-0.05-0.08-0.04-0.12l12.01-52.89
						c0.01-0.06,0.05-0.11,0.13-0.1c0.06,0,0.11,0.05,0.12,0.1l0,0l-0.36,47.85c0,0.05-0.03,0.09-0.08,0.11l-11.65,5.06
						C452.88,213.57,452.86,213.57,452.85,213.57z M464.72,161.71l-11.7,51.53l11.34-4.93L464.72,161.71z"/>
				</g>
				<g>
					<path class="st3" d="M452.85,213.57c-0.03,0-0.06-0.01-0.09-0.03l-16.57-15.45c-0.05-0.04-0.05-0.12-0.01-0.17l28.56-37.42
						c0.02-0.04,0.06-0.07,0.12-0.07c0.06,0,0.11,0.05,0.12,0.1l0,0c0,0.02,0,0.04-0.01,0.06l-12,52.87
						c-0.01,0.04-0.04,0.08-0.09,0.09C452.87,213.57,452.86,213.57,452.85,213.57z M436.45,197.98l16.32,15.22l11.83-52.12
						L436.45,197.98z"/>
				</g>
				<g>
					<path class="st3" d="M464.49,208.51c-0.03,0-0.06-0.01-0.09-0.04c-0.04-0.04-0.05-0.11-0.01-0.16l31.76-43.51
						c0.02-0.05,0.06-0.08,0.12-0.07c0.06,0.01,0.11,0.05,0.11,0.11l1.68,18.98c0,0.04-0.02,0.09-0.05,0.11l-33.46,24.54
						C464.54,208.5,464.52,208.51,464.49,208.51z M496.17,165.2l-31.1,42.6l32.75-24.03L496.17,165.2z"/>
				</g>
				<g>
					<path class="st3" d="M464.49,208.51c-0.01,0-0.03,0-0.04-0.01c-0.05-0.02-0.09-0.07-0.09-0.12l0.36-47.83
						c0-0.04,0.02-0.07,0.04-0.09c0.03-0.02,0.06-0.03,0.1-0.03l31.41,4.3c0.04,0.01,0.07,0.03,0.09,0.06
						c0.02,0.03,0.03,0.07,0.01,0.1c0,0.01-0.01,0.03-0.02,0.04l-31.77,43.52C464.57,208.49,464.53,208.51,464.49,208.51z
						 M464.98,160.7l-0.36,47.3l31.42-43.04L464.98,160.7z"/>
				</g>
				<g>
					<path class="st3" d="M497.95,183.96c-0.04,0-0.08-0.02-0.1-0.05c-0.03-0.04-0.03-0.1-0.01-0.14l18.74-31.01
						c0.01-0.01,0.01-0.02,0.02-0.02l0,0c0.02-0.02,0.06-0.03,0.09-0.04c0.03,0,0.07,0.02,0.09,0.04l18.12,21.48
						c0.03,0.03,0.04,0.08,0.02,0.12c-0.01,0.04-0.05,0.07-0.09,0.08l-36.86,9.53C497.97,183.96,497.96,183.96,497.95,183.96z
						 M516.71,153.04l-18.5,30.6l36.37-9.4L516.71,153.04z"/>
				</g>
				<g>
					<path class="st3" d="M497.95,183.96c-0.01,0-0.02,0-0.03,0c-0.05-0.01-0.09-0.06-0.1-0.11l-1.68-18.98
						c0-0.05,0.02-0.09,0.06-0.12l20.43-12.03c0.05-0.03,0.12-0.02,0.16,0.03c0.04,0.05,0.03,0.11,0,0.15l-18.74,31
						C498.03,183.94,497.99,183.96,497.95,183.96z M496.4,164.92l1.64,18.52l18.29-30.26L496.4,164.92z"/>
				</g>
				<g>
					<path class="st3" d="M534.81,174.44c-0.02,0-0.05-0.01-0.07-0.02c-0.05-0.03-0.07-0.09-0.05-0.15l17.56-45.89
						c0.01-0.03,0.04-0.06,0.07-0.07c0.03-0.01,0.07-0.01,0.1,0l0,0l17.88,12.62c0.03,0.02,0.05,0.06,0.05,0.09
						c0,0.04-0.01,0.07-0.04,0.1L534.9,174.4C534.87,174.43,534.84,174.44,534.81,174.44z M552.43,128.62l-17.31,45.23l34.91-32.8
						L552.43,128.62z"/>
				</g>
				<g>
					<path class="st3" d="M534.81,174.44c-0.04,0-0.07-0.02-0.1-0.04l-18.12-21.48c-0.02-0.03-0.03-0.06-0.03-0.1
						c0-0.03,0.02-0.07,0.05-0.09l35.66-24.38c0.01-0.01,0.03-0.03,0.05-0.03c0.03-0.01,0.07-0.01,0.1,0l0,0
						c0.04,0.02,0.07,0.06,0.07,0.1c0,0.03-0.01,0.06-0.02,0.09l-17.55,45.86c-0.02,0.04-0.05,0.07-0.1,0.08
						C534.82,174.44,534.82,174.44,534.81,174.44z M516.88,152.85l17.89,21.22l17.34-45.31L516.88,152.85z"/>
				</g>
				<g>
					<path class="st3" d="M570.23,141.16c-0.04,0-0.07-0.02-0.1-0.04c-0.03-0.04-0.04-0.09-0.02-0.14l25.98-50.31
						c0.03-0.06,0.1-0.08,0.16-0.06l0,0c0.03,0.01,0.05,0.03,0.06,0.06l19.3,36.02c0.02,0.03,0.02,0.07,0.01,0.11
						c-0.01,0.03-0.04,0.06-0.08,0.07l-45.29,14.29C570.26,141.16,570.25,141.16,570.23,141.16z M596.22,91l-25.74,49.83
						l44.86-14.15L596.22,91z"/>
				</g>
				<g>
					<path class="st3" d="M570.23,141.16c-0.03,0-0.05-0.01-0.07-0.02l-17.86-12.61c-0.03-0.02-0.05-0.06-0.05-0.1
						c0-0.04,0.01-0.08,0.04-0.1l43.82-37.67c0.03-0.05,0.1-0.07,0.15-0.05l0,0c0.04,0.02,0.07,0.05,0.08,0.1
						c0.01,0.04-0.01,0.08-0.03,0.11l-25.97,50.27c-0.02,0.03-0.05,0.06-0.08,0.06C570.25,141.16,570.24,141.16,570.23,141.16z
						 M552.58,128.42l17.61,12.44l25.62-49.6L552.58,128.42z"/>
				</g>
				<g>
					<path class="st3" d="M615.52,126.88c-0.03,0-0.05-0.01-0.08-0.03c-0.04-0.03-0.06-0.08-0.04-0.13l10.07-36.64
						c0.01-0.04,0.04-0.07,0.08-0.09c0.04-0.01,0.08-0.01,0.12,0.02l0,0c0.01,0.01,0.02,0.02,0.03,0.03l14.59,22.35
						c0.02,0.03,0.02,0.06,0.02,0.1c-0.01,0.03-0.03,0.06-0.06,0.08l-24.66,14.29C615.56,126.87,615.54,126.88,615.52,126.88z
						 M625.64,90.41l-9.91,36.08L640,112.42L625.64,90.41z"/>
				</g>
				<g>
					<path class="st3" d="M615.52,126.88c-0.05,0-0.09-0.02-0.11-0.07l-19.3-36.02c-0.02-0.04-0.02-0.08,0-0.12
						c0.02-0.04,0.06-0.06,0.11-0.06l29.34-0.62c0.04-0.01,0.07,0,0.1,0.02l0,0c0.04,0.03,0.06,0.09,0.04,0.14
						c0,0.01,0,0.01-0.01,0.02l-10.06,36.61c-0.01,0.05-0.06,0.09-0.11,0.09C615.53,126.88,615.53,126.88,615.52,126.88z
						 M596.43,90.85l19.05,35.56l9.94-36.17L596.43,90.85z"/>
				</g>
				<g>
					<path class="st3" d="M163.81,406.51c-0.03,0-0.07-0.01-0.09-0.04c-0.03-0.03-0.04-0.08-0.03-0.12l12.74-39.22
						c0-0.01,0.01-0.02,0.01-0.03l0,0c0.02-0.03,0.05-0.05,0.09-0.05c0.04-0.01,0.07,0,0.1,0.03l34.17,27.66
						c0.04,0.03,0.05,0.08,0.04,0.12c-0.01,0.05-0.05,0.08-0.09,0.09l-46.9,11.56C163.83,406.51,163.82,406.51,163.81,406.51z
						 M176.61,367.38L164,406.21l46.44-11.45L176.61,367.38z"/>
				</g>
				<g>
					<path class="st3" d="M163.81,406.51c-0.01,0-0.01,0-0.02,0c-0.06-0.01-0.11-0.06-0.1-0.13l0.48-15.98
						c0-0.02,0.01-0.04,0.01-0.05l12.25-23.23c0-0.01,0.01-0.01,0.01-0.02l0,0c0.04-0.06,0.11-0.07,0.17-0.04
						c0.06,0.03,0.08,0.1,0.05,0.16l-12.73,39.21C163.92,406.48,163.87,406.51,163.81,406.51z M164.42,390.44l-0.46,15.08l12.02-37
						L164.42,390.44z"/>
				</g>
				<g>
					<path class="st3" d="M210.72,394.95c-0.03,0-0.06-0.01-0.08-0.03l-34.17-27.66c-0.04-0.03-0.06-0.08-0.04-0.13
						c0.01-0.05,0.05-0.08,0.1-0.09l44.33-5.62c0.04,0,0.09,0.02,0.11,0.05c0.02,0.03,0.04,0.07,0.03,0.11l-10.17,33.28
						c-0.01,0.04-0.04,0.07-0.08,0.08C210.74,394.95,210.73,394.95,210.72,394.95z M176.86,367.25l33.79,27.36l10.06-32.92
						L176.86,367.25z"/>
				</g>
				<g>
					<path class="st3" d="M241.03,377.57c-0.02,0-0.05-0.01-0.07-0.02c-0.05-0.03-0.07-0.09-0.05-0.15l22.48-61.76
						c0-0.01,0.01-0.02,0.01-0.03l0,0c0.03-0.04,0.07-0.06,0.12-0.05c0.05,0.01,0.09,0.04,0.1,0.08l10.92,30.57
						c0.02,0.05,0,0.1-0.03,0.13l-33.4,31.18C241.09,377.56,241.06,377.57,241.03,377.57z M263.51,316.05L241.32,377l32.96-30.77
						L263.51,316.05z"/>
				</g>
				<g>
					<path class="st3" d="M241.03,377.57c-0.03,0-0.06-0.01-0.08-0.03l-20.15-15.9c-0.03-0.02-0.04-0.05-0.05-0.09
						c0-0.04,0.01-0.07,0.03-0.09l42.63-45.86c0.04-0.05,0.12-0.05,0.17-0.01c0.05,0.04,0.06,0.1,0.04,0.15l-22.48,61.75
						c-0.01,0.04-0.04,0.07-0.08,0.08C241.05,377.57,241.04,377.57,241.03,377.57z M221.06,361.53l19.91,15.71l22.21-61.02
						L221.06,361.53z"/>
				</g>
				<g>
					<path class="st3" d="M274.43,346.39C274.43,346.39,274.42,346.39,274.43,346.39c-0.06,0-0.1-0.04-0.12-0.08l-10.92-30.57
						c-0.02-0.07,0.01-0.14,0.08-0.16l33.69-12.16c0.04-0.02,0.08-0.02,0.12,0c0.06,0.03,0.09,0.11,0.05,0.17l0,0c0,0,0,0,0,0.01
						l-22.78,42.74C274.52,346.36,274.48,346.39,274.43,346.39z M263.67,315.76l10.78,30.19l22.5-42.21L263.67,315.76z"/>
				</g>
				<g>
					<path class="st3" d="M309.77,334.75c-0.03,0-0.06-0.01-0.08-0.03c-0.04-0.03-0.05-0.07-0.04-0.12l11.11-58.44
						c0-0.04,0.03-0.08,0.07-0.1c0.06-0.03,0.13-0.01,0.16,0.05l27.19,43.42c0.02,0.03,0.02,0.07,0.01,0.11
						c-0.01,0.04-0.04,0.06-0.07,0.08l-38.3,15.03C309.8,334.75,309.79,334.75,309.77,334.75z M320.94,276.51l-11.01,57.92
						l37.95-14.9L320.94,276.51z"/>
				</g>
				<g>
					<path class="st3" d="M309.77,334.75c-0.05,0-0.1-0.03-0.12-0.08l-12.55-31.11c-0.02-0.04-0.01-0.09,0.02-0.13l23.66-27.34
						c0.03-0.03,0.07-0.05,0.12-0.04c0.04,0.01,0.08,0.04,0.09,0.08c0.01,0.02,0.01,0.04,0,0.06l-11.11,58.45
						c-0.01,0.05-0.06,0.1-0.11,0.1C309.78,334.75,309.77,334.75,309.77,334.75z M297.36,303.54l12.36,30.65l10.95-57.58
						L297.36,303.54z"/>
				</g>
				<g>
					<path class="st3" d="M348.07,319.72c-0.04,0-0.08-0.02-0.11-0.06l-27.19-43.42c-0.02-0.04-0.03-0.08-0.01-0.12
						c0.02-0.04,0.05-0.07,0.09-0.07l39.17-6.08c0.02-0.01,0.05-0.01,0.07,0l0.01,0c0.06,0.01,0.1,0.07,0.1,0.13
						c0,0.02-0.01,0.04-0.02,0.06l-11.99,49.47c-0.01,0.05-0.05,0.09-0.1,0.09C348.09,319.72,348.08,319.72,348.07,319.72z
						 M321.09,276.27l26.93,43.01l11.89-49.03L321.09,276.27z"/>
				</g>
				<g>
					<path class="st3" d="M374.4,314.64c-0.03,0-0.05-0.01-0.07-0.02c-0.04-0.03-0.06-0.08-0.05-0.12l10.85-65.96
						c0-0.06,0.05-0.11,0.11-0.12c0.07-0.01,0.13,0.03,0.14,0.1c0,0,0,0.01,0,0.02l6.09,56.48c0.01,0.05-0.02,0.1-0.06,0.12
						l-16.94,9.49C374.44,314.64,374.42,314.64,374.4,314.64z M385.22,249.48l-10.66,64.81l16.64-9.32L385.22,249.48z"/>
				</g>
				<g>
					<path class="st3" d="M374.4,314.64c-0.05,0-0.1-0.03-0.12-0.09l-14.32-44.43c-0.02-0.05,0-0.1,0.04-0.13l25.16-21.54
						c0.03-0.03,0.08-0.04,0.12-0.02c0.04,0.01,0.07,0.05,0.08,0.09c0,0.01,0,0.03,0,0.05l-10.85,65.97
						C374.51,314.6,374.46,314.64,374.4,314.64C374.4,314.64,374.4,314.64,374.4,314.64z M360.22,270.13l14.13,43.86l10.71-65.13
						L360.22,270.13z"/>
				</g>
				<g>
					<path class="st3" d="M391.33,305.16c-0.02,0-0.05-0.01-0.07-0.02c-0.04-0.03-0.06-0.08-0.06-0.12l10.74-71.13
						c0.01-0.05,0.05-0.1,0.1-0.1c0.04-0.01,0.09,0.01,0.11,0.04l42.68,35.49c0.03,0.03,0.05,0.06,0.04,0.1
						c0,0.04-0.02,0.08-0.06,0.1l-53.43,35.62C391.38,305.15,391.36,305.16,391.33,305.16z M402.16,234.14l-10.66,70.63l53.06-35.37
						L402.16,234.14z"/>
				</g>
				<g>
					<path class="st3" d="M391.33,305.16C391.33,305.16,391.33,305.16,391.33,305.16c-0.07,0-0.12-0.05-0.12-0.11l-6.09-56.48
						c0-0.04,0.01-0.08,0.04-0.11l16.81-14.62c0.02-0.03,0.05-0.05,0.08-0.05c0.05-0.01,0.11,0.02,0.13,0.07l0,0
						c0.02,0.03,0.02,0.07,0.01,0.1l-10.73,71.1C391.45,305.11,391.39,305.16,391.33,305.16z M385.38,248.6l5.98,55.46l10.54-69.83
						L385.38,248.6z"/>
				</g>
				<g>
					<path class="st3" d="M444.76,269.54c-0.03,0-0.06-0.01-0.08-0.03L401.99,234c-0.03-0.03-0.05-0.07-0.04-0.12
						c0.01-0.04,0.04-0.08,0.08-0.1l50.77-20.46c0.03-0.01,0.07-0.01,0.1,0c0.03,0.02,0.06,0.05,0.06,0.08c0,0.02,0,0.03,0,0.05
						l-8.09,55.96c-0.01,0.04-0.04,0.08-0.08,0.1C444.79,269.53,444.78,269.54,444.76,269.54z M402.31,233.95l42.36,35.23
						l8.02-55.53L402.31,233.95z"/>
				</g>
				<g>
					<path class="st3" d="M507.69,228.85c-0.02,0-0.03,0-0.05-0.01c-0.04-0.02-0.06-0.05-0.07-0.09l-9.74-44.88
						c0-0.02,0-0.04,0-0.06l0-0.01c0.01-0.04,0.04-0.07,0.08-0.08c0.04-0.02,0.08-0.01,0.11,0.01l41.16,25.64
						c0.04,0.02,0.06,0.06,0.06,0.11c0,0.04-0.02,0.08-0.06,0.11l-31.42,19.24C507.73,228.85,507.71,228.85,507.69,228.85z
						 M498.13,184.1l9.64,44.43l31.09-19.05L498.13,184.1z"/>
				</g>
				<g>
					<path class="st3" d="M507.69,228.85c-0.02,0-0.04,0-0.05-0.01l-43.19-20.34c-0.04-0.02-0.07-0.06-0.07-0.1
						c0-0.04,0.02-0.09,0.05-0.11l33.46-24.54c0.04-0.03,0.1-0.03,0.14,0c0.03,0.02,0.05,0.06,0.05,0.1l9.74,44.86
						c0.01,0.05-0.01,0.09-0.04,0.12C507.74,228.84,507.71,228.85,507.69,228.85z M464.74,208.36l42.78,20.15l-9.65-44.45
						L464.74,208.36z"/>
				</g>
				<g>
					<path class="st3" d="M539.1,209.61c-0.02,0-0.05-0.01-0.07-0.02l-41.16-25.64c-0.04-0.03-0.07-0.08-0.06-0.13
						c0.01-0.05,0.04-0.09,0.09-0.1l36.84-9.52c0.01,0,0.01-0.01,0.02-0.01c0.06-0.02,0.12,0.01,0.15,0.06l0,0
						c0.01,0.02,0.01,0.04,0.01,0.06l4.29,35.15c0.01,0.05-0.02,0.09-0.06,0.12C539.15,209.6,539.13,209.61,539.1,209.61z
						 M498.26,183.89l40.69,25.35l-4.24-34.77L498.26,183.89z"/>
				</g>
				<g>
					<path class="st3" d="M544.33,193.46c-0.04,0-0.08-0.02-0.11-0.06c-0.02-0.04-0.03-0.08-0.01-0.12l25.9-52.3
						c0.01-0.03,0.04-0.05,0.07-0.06l0,0c0.03-0.01,0.07-0.01,0.1,0.01c0.03,0.02,0.05,0.04,0.06,0.07l15.62,51.34
						c0.01,0.04,0,0.08-0.02,0.11c-0.02,0.03-0.06,0.05-0.1,0.05L544.33,193.46C544.33,193.46,544.33,193.46,544.33,193.46z
						 M570.2,141.37l-25.67,51.83l41.15-0.95L570.2,141.37z"/>
				</g>
				<g>
					<path class="st3" d="M544.33,193.46c-0.05,0-0.09-0.03-0.11-0.07l-9.52-19.02c-0.02-0.05-0.01-0.11,0.03-0.15l35.4-33.26
						c0.02-0.02,0.04-0.04,0.06-0.04l0,0c0.06-0.02,0.12,0,0.15,0.05c0.03,0.05,0.02,0.1-0.01,0.14l-25.89,52.27
						C544.42,193.43,544.38,193.46,544.33,193.46C544.33,193.46,544.33,193.46,544.33,193.46z M534.96,174.34l9.37,18.72
						l25.48-51.45L534.96,174.34z"/>
				</g>
				<g>
					<path class="st3" d="M585.85,192.5C585.85,192.5,585.84,192.5,585.85,192.5c-0.06,0-0.1-0.04-0.12-0.09l-15.62-51.34
						c-0.02-0.07,0.02-0.14,0.08-0.16l45.29-14.29c0.02-0.01,0.04-0.01,0.06,0c0.04,0.01,0.07,0.03,0.09,0.06
						c0.02,0.03,0.02,0.08,0.01,0.11l-29.68,65.62C585.94,192.47,585.9,192.5,585.85,192.5z M570.39,141.12l15.48,50.9l29.43-65.07
						L570.39,141.12z"/>
				</g>
			</g>
			<g>
				<path class="st1" d="M-4.74,318c-1.13,0-2.04,0.92-2.04,2.04c0,1.13,0.92,2.04,2.04,2.04c1.13,0,2.04-0.92,2.04-2.04
					C-2.7,318.91-3.61,318-4.74,318z"/>
				<path class="st1" d="M-23.12,302.77c-0.7,0-1.28,0.57-1.28,1.28c0,0.7,0.57,1.28,1.28,1.28c0.7,0,1.28-0.57,1.28-1.28
					C-21.85,303.35-22.42,302.77-23.12,302.77z"/>
				<path class="st1" d="M21.52,260.54c-0.57,0-1.04,0.47-1.04,1.04c0,0.57,0.47,1.04,1.04,1.04c0.57,0,1.04-0.47,1.04-1.04
					C22.56,261,22.1,260.54,21.52,260.54z"/>
				<path class="st1" d="M45.67,287.25c-1.5,0-2.71,1.21-2.71,2.71c0,1.5,1.21,2.71,2.71,2.71c1.5,0,2.71-1.21,2.71-2.71
					C48.38,288.47,47.17,287.25,45.67,287.25z"/>
				<path class="st1" d="M26.2,287.63c-0.84,0-1.51,0.68-1.51,1.51c0,0.84,0.68,1.51,1.51,1.51c0.84,0,1.51-0.68,1.51-1.51
					C27.72,288.31,27.04,287.63,26.2,287.63z"/>
				<circle class="st1" cx="86.27" cy="240.94" r="1.4"/>
				<circle class="st1" cx="39.87" cy="249.79" r="1.3"/>
				<path class="st1" d="M169.4,233.34c0-1.52-1.24-2.76-2.76-2.76c-1.52,0-2.76,1.24-2.76,2.76c0,1.52,1.24,2.76,2.76,2.76
					C168.16,236.1,169.4,234.87,169.4,233.34z"/>
				<circle class="st1" cx="135.64" cy="199.72" r="3.23"/>
				<circle class="st1" cx="173.62" cy="173.01" r="0.94"/>
				<circle class="st1" cx="232.17" cy="130.59" r="1.42"/>
				<path class="st1" d="M253.97,125.96c-0.83,0-1.51,0.67-1.51,1.51c0,0.83,0.67,1.51,1.51,1.51c0.83,0,1.51-0.67,1.51-1.51
					C255.47,126.64,254.8,125.96,253.97,125.96z"/>
				<path class="st1" d="M292.15,100.03c-1.07,0-1.93,0.86-1.93,1.93c0,1.07,0.86,1.93,1.93,1.93c1.07,0,1.93-0.86,1.93-1.93
					C294.07,100.89,293.21,100.03,292.15,100.03z"/>
				<circle class="st1" cx="340.89" cy="94.67" r="1.92"/>
				<path class="st1" d="M315.34,141.93c-1.31,0-2.37,1.06-2.37,2.37c0,1.31,1.06,2.37,2.37,2.37c1.31,0,2.37-1.06,2.37-2.37
					C317.71,142.99,316.65,141.93,315.34,141.93z"/>
				<path class="st1" d="M384.9,48.21c0.88,0,1.6-0.72,1.6-1.6c0-0.88-0.72-1.6-1.6-1.6s-1.6,0.72-1.6,1.6
					C383.3,47.49,384.02,48.21,384.9,48.21z"/>
				<path class="st1" d="M355.3,63.89c0-0.71-0.57-1.28-1.28-1.28c-0.71,0-1.28,0.57-1.28,1.28c0,0.71,0.57,1.28,1.28,1.28
					C354.73,65.17,355.3,64.6,355.3,63.89z"/>
				<path class="st1" d="M430.3,60.5c-0.86,0-1.56,0.7-1.56,1.56c0,0.86,0.7,1.56,1.56,1.56c0.86,0,1.56-0.7,1.56-1.56
					C431.86,61.2,431.16,60.5,430.3,60.5z"/>
				<path class="st1" d="M475.81-10.2c-1.21,0-2.18,0.98-2.18,2.18c0,1.21,0.98,2.18,2.18,2.18c1.21,0,2.18-0.98,2.18-2.18
					C477.99-9.22,477.01-10.2,475.81-10.2z"/>
				<circle class="st1" cx="467.39" cy="4.51" r="1.84"/>
				<path class="st1" d="M471.39,41.86c-0.94,0-1.69,0.76-1.69,1.69c0,0.94,0.76,1.69,1.69,1.69c0.94,0,1.69-0.76,1.69-1.69
					C473.09,42.62,472.33,41.86,471.39,41.86z"/>
				<path class="st1" d="M554.47-29.78c-1.09,0-1.98,0.89-1.98,1.98c0,1.09,0.89,1.98,1.98,1.98c1.09,0,1.98-0.89,1.98-1.98
					C556.45-28.9,555.56-29.78,554.47-29.78z"/>
				<path class="st1" d="M501.85-21.81c-1.24,0-2.24,1-2.24,2.24c0,1.24,1,2.24,2.24,2.24c1.24,0,2.24-1,2.24-2.24
					C504.09-20.81,503.09-21.81,501.85-21.81z"/>
				<path class="st1" d="M35.59,328.54c-0.91,0-1.66,0.74-1.66,1.66c0,0.91,0.74,1.66,1.66,1.66c0.91,0,1.66-0.74,1.66-1.66
					C37.25,329.28,36.51,328.54,35.59,328.54z"/>
				<path class="st1" d="M78.34,254.48c-1.38,0-2.5,1.12-2.5,2.5c0,1.38,1.12,2.5,2.5,2.5c1.38,0,2.5-1.12,2.5-2.5
					C80.84,255.6,79.72,254.48,78.34,254.48z"/>
				<path class="st1" d="M121.93,237.04c-0.88,0-1.59,0.71-1.59,1.59c0,0.88,0.71,1.59,1.59,1.59c0.88,0,1.59-0.71,1.59-1.59
					C123.53,237.75,122.81,237.04,121.93,237.04z"/>
				<path class="st1" d="M118.73,283.63c-1.2,0-2.17,0.97-2.17,2.17c0,1.2,0.97,2.17,2.17,2.17s2.17-0.97,2.17-2.17
					C120.9,284.6,119.92,283.63,118.73,283.63z"/>
				<path class="st1" d="M152.34,271.53c-1.01,0-1.82,0.82-1.82,1.82s0.82,1.82,1.82,1.82c1.01,0,1.82-0.82,1.82-1.82
					S153.35,271.53,152.34,271.53z"/>
				<path class="st1" d="M186.47,198.25c-1.47,0-2.67,1.19-2.67,2.67c0,1.47,1.19,2.67,2.67,2.67c1.47,0,2.67-1.19,2.67-2.67
					C189.14,199.44,187.95,198.25,186.47,198.25z"/>
				<path class="st1" d="M198.92,250.53c-0.76,0-1.38,0.62-1.38,1.38c0,0.76,0.62,1.38,1.38,1.38c0.76,0,1.38-0.62,1.38-1.38
					C200.3,251.15,199.68,250.53,198.92,250.53z"/>
				<path class="st1" d="M221.19,180.9c-1.3,0-2.35,1.05-2.35,2.35c0,1.3,1.05,2.35,2.35,2.35c1.3,0,2.35-1.05,2.35-2.35
					C223.54,181.95,222.49,180.9,221.19,180.9z"/>
				<path class="st1" d="M267.66,174.93c-1.08,0-1.95,0.87-1.95,1.95c0,1.08,0.87,1.95,1.95,1.95c1.08,0,1.95-0.87,1.95-1.95
					C269.61,175.81,268.74,174.93,267.66,174.93z"/>
				<path class="st1" d="M283.09,149.15c0-1.34-1.08-2.42-2.42-2.42c-1.34,0-2.42,1.08-2.42,2.42c0,1.34,1.08,2.42,2.42,2.42
					C282.01,151.57,283.09,150.49,283.09,149.15z"/>
				<path class="st1" d="M358.51,112.36c1.15,0,2.08-0.93,2.08-2.08c0-1.15-0.93-2.08-2.08-2.08c-1.15,0-2.08,0.93-2.08,2.08
					C356.42,111.43,357.36,112.36,358.51,112.36z"/>
				<path class="st1" d="M384.54,111.36c1.72,0,3.11-1.39,3.11-3.11c0-1.72-1.39-3.11-3.11-3.11c-1.72,0-3.11,1.39-3.11,3.11
					C381.43,109.97,382.82,111.36,384.54,111.36z"/>
				<path class="st1" d="M405.43,77.02c-0.36,0-0.65,0.29-0.65,0.65c0,0.36,0.29,0.65,0.65,0.65c0.36,0,0.65-0.29,0.65-0.65
					C406.08,77.32,405.79,77.02,405.43,77.02z"/>
				<path class="st1" d="M393.67,122.36c-0.97,0-1.76,0.79-1.76,1.76s0.79,1.76,1.76,1.76c0.97,0,1.76-0.79,1.76-1.76
					S394.64,122.36,393.67,122.36z"/>
				<path class="st1" d="M491.59,31.14c-0.55,0-1,0.45-1,1s0.45,1,1,1c0.55,0,1-0.45,1-1S492.14,31.14,491.59,31.14z"/>
				<path class="st1" d="M526.25,11.89c-1.53,0-2.76,1.24-2.76,2.76s1.24,2.76,2.76,2.76c1.53,0,2.76-1.24,2.76-2.76
					S527.78,11.89,526.25,11.89z"/>
				<path class="st1" d="M535.15,48.07c0-1.48-1.2-2.68-2.68-2.68s-2.68,1.2-2.68,2.68c0,1.48,1.2,2.68,2.68,2.68
					S535.15,49.56,535.15,48.07z"/>
				<path class="st1" d="M577.79-27.39c-1.18,0-2.13,0.95-2.13,2.13s0.95,2.13,2.13,2.13c1.18,0,2.13-0.95,2.13-2.13
					S578.97-27.39,577.79-27.39z"/>
				<path class="st1" d="M101.83,337.18c-1.86,0-3.37,1.51-3.37,3.37c0,1.86,1.51,3.37,3.37,3.37c1.86,0,3.37-1.51,3.37-3.37
					C105.19,338.69,103.69,337.18,101.83,337.18z"/>
				<path class="st1" d="M90.22,310.8c-0.09-0.02-0.19-0.03-0.29-0.03c-0.79,0-1.42,0.64-1.42,1.42c0,0.39,0.16,0.75,0.42,1.01
					c0.26,0.26,0.61,0.42,1.01,0.42c0.79,0,1.43-0.64,1.43-1.43C91.36,311.5,90.87,310.93,90.22,310.8z"/>
				<path class="st1" d="M137.86,318.71c-1.06,0-1.92,0.86-1.92,1.92c0,1.06,0.86,1.92,1.92,1.92c1.06,0,1.92-0.86,1.92-1.92
					C139.78,319.57,138.92,318.71,137.86,318.71z"/>
				<path class="st1" d="M155.5,297.12c-0.75,0-1.36,0.61-1.36,1.36c0,0.75,0.61,1.36,1.36,1.36c0.75,0,1.36-0.61,1.36-1.36
					C156.86,297.73,156.25,297.12,155.5,297.12z"/>
				<circle class="st1" cx="171.87" cy="269.4" r="1.14"/>
				<circle class="st1" cx="192.83" cy="270.82" r="2.28"/>
				<path class="st1" d="M241.19,271.99c0-1.11-0.9-2.01-2.01-2.01c-1.11,0-2.01,0.9-2.01,2.01c0,1.11,0.9,2.01,2.01,2.01
					C240.29,274,241.19,273.1,241.19,271.99z"/>
				<circle class="st1" cx="237.29" cy="225.76" r="1.57"/>
				<path class="st1" d="M264.2,195.53c0.82,0,1.49-0.67,1.49-1.49c0-0.82-0.67-1.49-1.49-1.49c-0.82,0-1.49,0.67-1.49,1.49
					C262.71,194.86,263.38,195.53,264.2,195.53z"/>
				<path class="st1" d="M282.47,184.77c0-0.65-0.53-1.17-1.17-1.17c-0.65,0-1.17,0.53-1.17,1.17c0,0.65,0.53,1.17,1.17,1.17
					C281.94,185.94,282.47,185.42,282.47,184.77z"/>
				<path class="st1" d="M301.88,230.12c0-0.9-0.73-1.63-1.63-1.63c-0.9,0-1.63,0.73-1.63,1.63s0.73,1.63,1.63,1.63
					C301.15,231.75,301.88,231.02,301.88,230.12z"/>
				<path class="st1" d="M339.22,157.26c-1.45,0-2.62,1.17-2.62,2.62c0,1.45,1.17,2.62,2.62,2.62s2.62-1.17,2.62-2.62
					C341.84,158.43,340.67,157.26,339.22,157.26z"/>
				<circle class="st1" cx="368.02" cy="142.16" r="1.57"/>
				<path class="st1" d="M419.02,162.89c-0.79,0-1.43,0.64-1.43,1.43c0,0.79,0.64,1.43,1.43,1.43c0.79,0,1.43-0.64,1.43-1.43
					C420.45,163.53,419.81,162.89,419.02,162.89z"/>
				<path class="st1" d="M409.75,114.92c-1.14,0-2.07,0.93-2.07,2.07c0,1.14,0.93,2.07,2.07,2.07c1.14,0,2.07-0.93,2.07-2.07
					C411.82,115.85,410.89,114.92,409.75,114.92z"/>
				<path class="st1" d="M447.57,91.99c-0.75,0-1.37,0.61-1.37,1.37c0,0.75,0.61,1.37,1.37,1.37c0.75,0,1.37-0.61,1.37-1.37
					C448.93,92.6,448.32,91.99,447.57,91.99z"/>
				<path class="st1" d="M507.76,76.67c0-1.13-0.92-2.05-2.05-2.05c-1.13,0-2.05,0.92-2.05,2.05c0,1.13,0.92,2.05,2.05,2.05
					C506.84,78.72,507.76,77.8,507.76,76.67z"/>
				<path class="st1" d="M569.94,32.58c0-0.87-0.71-1.58-1.58-1.58c-0.87,0-1.58,0.71-1.58,1.58c0,0.87,0.71,1.58,1.58,1.58
					C569.24,34.17,569.94,33.46,569.94,32.58z"/>
				<path class="st1" d="M588.23,53.44c-1.26,0-2.28,1.02-2.28,2.28s1.02,2.28,2.28,2.28s2.28-1.02,2.28-2.28
					S589.49,53.44,588.23,53.44z"/>
				<circle class="st1" cx="574.2" cy="18.44" r="1.64"/>
				<path class="st1" d="M97.31,369.3c-1.29,0-2.34,1.05-2.34,2.34c0,1.29,1.05,2.34,2.34,2.34s2.34-1.05,2.34-2.34
					C99.65,370.35,98.6,369.3,97.31,369.3z"/>
				<path class="st1" d="M66.26,372.68c0.54,0,0.97-0.44,0.97-0.97c0-0.54-0.44-0.97-0.97-0.97c-0.54,0-0.97,0.44-0.97,0.97
					C65.29,372.25,65.72,372.68,66.26,372.68z"/>
				<path class="st1" d="M65.81,393.12c-1.06,0-1.93,0.86-1.93,1.93s0.86,1.93,1.93,1.93s1.93-0.86,1.93-1.93
					S66.87,393.12,65.81,393.12z"/>
				<path class="st1" d="M170.11,337.68c-1.12,0-2.02,0.91-2.02,2.02c0,1.12,0.91,2.02,2.02,2.02c1.12,0,2.02-0.91,2.02-2.02
					C172.13,338.59,171.22,337.68,170.11,337.68z"/>
				<path class="st1" d="M209.88,327.98c0-0.65-0.53-1.18-1.18-1.18s-1.18,0.53-1.18,1.18c0,0.65,0.53,1.18,1.18,1.18
					S209.88,328.63,209.88,327.98z"/>
				<path class="st1" d="M261.47,245.2c0.69,0,1.25-0.56,1.25-1.25c0-0.69-0.56-1.25-1.25-1.25s-1.25,0.56-1.25,1.25
					C260.22,244.64,260.78,245.2,261.47,245.2z"/>
				<circle class="st1" cx="303.85" cy="256.63" r="2.92"/>
				<circle class="st1" cx="309.02" cy="216.13" r="2.19"/>
				<path class="st1" d="M324.08,255.22c-1.48,0-2.68,1.2-2.68,2.68c0,1.48,1.2,2.68,2.68,2.68c1.48,0,2.68-1.2,2.68-2.68
					C326.76,256.42,325.56,255.22,324.08,255.22z"/>
				<path class="st1" d="M390.26,178.49c0-0.94-0.76-1.7-1.71-1.7c-0.94,0-1.7,0.76-1.7,1.7c0,0.94,0.76,1.71,1.7,1.71
					C389.49,180.2,390.26,179.44,390.26,178.49z"/>
				<path class="st1" d="M355.64,195.5c-1.37,0-2.48,1.11-2.48,2.48c0,1.37,1.11,2.48,2.48,2.48c1.37,0,2.48-1.11,2.48-2.48
					C358.13,196.61,357.02,195.5,355.64,195.5z"/>
				<circle class="st1" cx="464.85" cy="160.56" r="2.93"/>
				<path class="st1" d="M450.33,121.77c-0.79,0-1.44,0.64-1.44,1.44c0,0.79,0.64,1.44,1.44,1.44c0.79,0,1.44-0.64,1.44-1.44
					C451.76,122.41,451.12,121.77,450.33,121.77z"/>
				<circle class="st1" cx="488.74" cy="122.02" r="1.06"/>
				<circle class="st1" cx="499.97" cy="113.61" r="1.45"/>
				<path class="st1" d="M552.38,125.65c-1.53,0-2.78,1.24-2.78,2.78c0,1.53,1.24,2.78,2.78,2.78c1.53,0,2.78-1.24,2.78-2.78
					C555.15,126.89,553.91,125.65,552.38,125.65z"/>
				<path class="st1" d="M516.69,150.27c-1.41,0-2.56,1.14-2.56,2.56c0,1.41,1.14,2.56,2.56,2.56s2.56-1.14,2.56-2.56
					C519.25,151.42,518.1,150.27,516.69,150.27z"/>
				<path class="st1" d="M544.44,94.28c0-1.53-1.24-2.78-2.78-2.78c-1.53,0-2.78,1.24-2.78,2.78c0,1.53,1.24,2.78,2.78,2.78
					C543.2,97.05,544.44,95.81,544.44,94.28z"/>
				<path class="st1" d="M596.22,89.27c-0.81,0-1.46,0.65-1.46,1.46c0,0.81,0.66,1.46,1.46,1.46c0.81,0,1.46-0.65,1.46-1.46
					C597.69,89.93,597.03,89.27,596.22,89.27z"/>
				<circle class="st1" cx="625.59" cy="90.11" r="1.65"/>
				<path class="st1" d="M574.69,70.6c-0.59,0-1.08,0.48-1.08,1.08c0,0.59,0.48,1.08,1.08,1.08s1.08-0.48,1.08-1.08
					C575.77,71.08,575.28,70.6,574.69,70.6z"/>
				<path class="st1" d="M124.59,402.54c-0.84,0-1.52,0.68-1.52,1.52c0,0.84,0.68,1.52,1.52,1.52s1.52-0.68,1.52-1.52
					C126.11,403.22,125.43,402.54,124.59,402.54z"/>
				<path class="st1" d="M94.12,417.95c-0.9,0-1.64,0.73-1.64,1.64c0,0.9,0.73,1.64,1.64,1.64s1.64-0.73,1.64-1.64
					C95.76,418.68,95.03,417.95,94.12,417.95z"/>
				<path class="st1" d="M145.61,361.53c-0.53,0-0.95,0.43-0.95,0.95c0,0.53,0.43,0.95,0.95,0.95c0.53,0,0.95-0.43,0.95-0.95
					C146.56,361.95,146.14,361.53,145.61,361.53z"/>
				<path class="st1" d="M164.3,389.35c-0.58,0-1.06,0.47-1.06,1.06c0,0.58,0.47,1.06,1.06,1.06c0.58,0,1.06-0.47,1.06-1.06
					C165.35,389.82,164.88,389.35,164.3,389.35z"/>
				<path class="st1" d="M246.98,286.8c-1.36,0-2.47,1.11-2.47,2.47c0,1.36,1.11,2.47,2.47,2.47c1.36,0,2.47-1.11,2.47-2.47
					C249.45,287.9,248.34,286.8,246.98,286.8z"/>
				<path class="st1" d="M297.22,302.35c-0.65,0-1.17,0.52-1.17,1.17c0,0.65,0.52,1.17,1.17,1.17c0.65,0,1.17-0.52,1.17-1.17
					C298.39,302.87,297.86,302.35,297.22,302.35z"/>
				<path class="st1" d="M263.51,312.2c-1.93,0-3.49,1.56-3.49,3.49c0,1.93,1.56,3.49,3.49,3.49c1.93,0,3.49-1.56,3.49-3.49
					C267,313.76,265.44,312.2,263.51,312.2z"/>
				<path class="st1" d="M283.15,285.79c-1.19,0-2.15,0.96-2.15,2.15c0,1.19,0.96,2.15,2.15,2.15c1.19,0,2.15-0.96,2.15-2.15
					C285.29,286.75,284.33,285.79,283.15,285.79z"/>
				<circle class="st1" cx="360.35" cy="228.66" r="2.33"/>
				<path class="st1" d="M436.29,195.95c-1.13,0-2.04,0.92-2.04,2.04c0,1.13,0.92,2.04,2.04,2.04c1.13,0,2.04-0.92,2.04-2.04
					C438.33,196.87,437.42,195.95,436.29,195.95z"/>
				<path class="st1" d="M386.98,209.13c0-1.75-1.42-3.18-3.18-3.18c-1.75,0-3.18,1.42-3.18,3.18c0,1.75,1.42,3.18,3.18,3.18
					C385.56,212.31,386.98,210.89,386.98,209.13z"/>
				<path class="st1" d="M498.24,164.86c0-1.09-0.88-1.97-1.97-1.97s-1.97,0.88-1.97,1.97c0,1.09,0.88,1.97,1.97,1.97
					S498.24,165.95,498.24,164.86z"/>
				<path class="st1" d="M464.49,207.14c-0.68,0-1.24,0.56-1.24,1.24s0.56,1.24,1.24,1.24c0.68,0,1.24-0.56,1.24-1.24
					S465.18,207.14,464.49,207.14z"/>
				<path class="st1" d="M497.95,182.39c-0.8,0-1.45,0.65-1.45,1.45c0,0.8,0.65,1.45,1.45,1.45c0.8,0,1.45-0.65,1.45-1.45
					C499.4,183.04,498.75,182.39,497.95,182.39z"/>
				<path class="st1" d="M534.81,172.86c-0.8,0-1.45,0.65-1.45,1.45c0,0.8,0.65,1.45,1.45,1.45c0.8,0,1.45-0.65,1.45-1.45
					C536.26,173.51,535.61,172.86,534.81,172.86z"/>
				<circle class="st1" cx="570.23" cy="141.04" r="1.8"/>
				<path class="st1" d="M640.18,111.4c-0.59,0-1.07,0.48-1.07,1.07s0.48,1.07,1.07,1.07c0.59,0,1.07-0.48,1.07-1.07
					S640.77,111.4,640.18,111.4z"/>
				<circle class="st1" cx="176.55" cy="367.17" r="1.55"/>
				<circle class="st1" cx="210.72" cy="394.82" r="2.35"/>
				<circle class="st1" cx="163.81" cy="406.39" r="0.76"/>
				<path class="st1" d="M220.88,359.93c-0.89,0-1.61,0.72-1.61,1.61c0,0.89,0.72,1.61,1.61,1.61c0.89,0,1.61-0.72,1.61-1.61
					C222.49,360.65,221.77,359.93,220.88,359.93z"/>
				<path class="st1" d="M274.43,344.76c-0.83,0-1.5,0.67-1.5,1.5s0.67,1.5,1.5,1.5s1.5-0.67,1.5-1.5S275.26,344.76,274.43,344.76z"
					/>
				<path class="st1" d="M241.03,375.93c-0.84,0-1.51,0.68-1.51,1.51c0,0.84,0.68,1.51,1.51,1.51s1.51-0.68,1.51-1.51
					C242.54,376.61,241.86,375.93,241.03,375.93z"/>
				<path class="st1" d="M348.07,318.54c-0.58,0-1.06,0.47-1.06,1.06c0,0.58,0.47,1.06,1.06,1.06c0.58,0,1.06-0.47,1.06-1.06
					C349.13,319.01,348.66,318.54,348.07,318.54z"/>
				<circle class="st1" cx="309.77" cy="334.63" r="1.33"/>
				<path class="st1" d="M320.88,274.8c-0.76,0-1.37,0.61-1.37,1.37c0,0.76,0.61,1.37,1.37,1.37s1.37-0.61,1.37-1.37
					C322.25,275.42,321.64,274.8,320.88,274.8z"/>
				<path class="st1" d="M385.24,245.26c-1.82,0-3.29,1.47-3.29,3.29c0,1.82,1.47,3.29,3.29,3.29s3.29-1.47,3.29-3.29
					C388.53,246.73,387.06,245.26,385.24,245.26z"/>
				<path class="st1" d="M391.33,303.42c-0.89,0-1.61,0.72-1.61,1.61c0,0.89,0.72,1.61,1.61,1.61c0.89,0,1.61-0.72,1.61-1.61
					C392.94,304.14,392.22,303.42,391.33,303.42z"/>
				<circle class="st1" cx="374.4" cy="314.52" r="0.76"/>
				<path class="st1" d="M360.08,268.2c-1.04,0-1.89,0.85-1.89,1.89s0.85,1.89,1.89,1.89c1.04,0,1.89-0.85,1.89-1.89
					S361.12,268.2,360.08,268.2z"/>
				<path class="st1" d="M402.07,231.81c-1.15,0-2.09,0.94-2.09,2.09s0.94,2.09,2.09,2.09c1.15,0,2.09-0.94,2.09-2.09
					S403.23,231.81,402.07,231.81z"/>
				<path class="st1" d="M444.76,267.91c-0.83,0-1.5,0.67-1.5,1.5c0,0.83,0.67,1.5,1.5,1.5c0.83,0,1.5-0.67,1.5-1.5
					C446.26,268.58,445.59,267.91,444.76,267.91z"/>
				<path class="st1" d="M452.85,211.95c-0.83,0-1.51,0.67-1.51,1.51c0,0.83,0.67,1.5,1.51,1.5c0.83,0,1.5-0.67,1.5-1.5
					C454.35,212.62,453.68,211.95,452.85,211.95z"/>
				<circle class="st1" cx="507.69" cy="228.73" r="1.06"/>
				<path class="st1" d="M539.1,208.78c-0.39,0-0.7,0.31-0.7,0.7c0,0.39,0.31,0.7,0.7,0.7c0.39,0,0.7-0.31,0.7-0.7
					C539.8,209.1,539.49,208.78,539.1,208.78z"/>
				<circle class="st1" cx="585.85" cy="192.37" r="1.3"/>
				<path class="st1" d="M544.33,190.97c-1.3,0-2.36,1.06-2.36,2.36c0,1.3,1.06,2.36,2.36,2.36c1.3,0,2.36-1.06,2.36-2.36
					C546.69,192.03,545.63,190.97,544.33,190.97z"/>
				<path class="st1" d="M615.52,125c-0.97,0-1.75,0.78-1.75,1.75c0,0.97,0.78,1.75,1.75,1.75c0.97,0,1.75-0.78,1.75-1.75
					C617.27,125.78,616.49,125,615.52,125z"/>
			</g>
		</g>
	</g>
</g>
</svg>
